<svg width="18" height="18" viewBox="0 0 18 18" fill="none" xmlns="http://www.w3.org/2000/svg">
<g id="accessory 1" clip-path="url(#clip0_8444_10100)">
<path id="Vector" d="M3.56112 6.78455H3.97347V5.25012C3.96782 5.08133 4.01774 4.91537 4.11557 4.77771C4.2134 4.64004 4.35384 4.53821 4.51511 4.48803C7.60938 3.84836 10.8017 3.84836 13.896 4.48803C14.0576 4.53824 14.1985 4.64013 14.2966 4.77807C14.3947 4.91601 14.4447 5.08241 14.439 5.25159V6.78455H14.8514C15.4167 6.78608 15.9648 6.97961 16.4057 7.3335V2.22156C16.4187 1.96349 16.3287 1.71083 16.1559 1.5188C15.983 1.32677 15.7411 1.21122 15.4831 1.19727H2.86971C2.61183 1.21161 2.36982 1.32722 2.19698 1.51917C2.02415 1.71111 1.93455 1.96358 1.94723 2.22156V7.38147C2.39805 6.99846 2.96957 6.7871 3.56112 6.78455Z" fill="white"/>
<path id="Vector_2" d="M17.0849 9.63468V13.1882H1.33484V9.63318C1.33484 9.00845 1.5826 8.4092 2.0238 7.96688C2.46499 7.52456 3.0636 7.27527 3.68833 7.27368H14.7238C15.35 7.27368 15.9506 7.52243 16.3933 7.96521C16.8361 8.40798 17.0849 9.00851 17.0849 9.63468Z" fill="white"/>
<path id="Vector_3" d="M17.076 17.8395V13.7009H1.32605V17.8395H3.07508V16.0754C3.06527 15.8726 3.1361 15.6741 3.2721 15.5232C3.40811 15.3723 3.59807 15.281 3.80091 15.2697H14.5499C14.753 15.2807 14.9435 15.3716 15.0798 15.5225C15.2161 15.6734 15.2874 15.8723 15.2776 16.0754V17.8395H17.076Z" fill="white"/>
</g>
<defs>
<clipPath id="clip0_8444_10100">
<rect width="16.5" height="18" fill="white" transform="translate(0.75)"/>
</clipPath>
</defs>
</svg>
