<svg width="474" height="150" viewBox="0 0 474 150" fill="none" xmlns="http://www.w3.org/2000/svg">
<path d="M61.9362 111.221L61.8092 101.11C58.6898 104.838 54.7549 107.799 50.3088 109.763C45.5177 111.811 40.3486 112.823 35.1391 112.737C30.074 112.821 25.0509 111.807 20.4155 109.763C16.2478 107.905 12.489 105.239 9.35595 101.921C6.32628 98.6846 3.96391 94.8841 2.40383 90.7348C-0.823507 82.2639 -0.800383 72.8977 2.46874 64.4429C4.05734 60.3134 6.43938 56.5356 9.48035 53.3217C12.6214 50.0459 16.3803 47.4246 20.5399 45.6096C25.1467 43.6184 30.1237 42.6271 35.1418 42.7022H69.9024V111.209L61.9362 111.221ZM35.1391 50.4249C31.5261 50.4078 27.9443 51.094 24.5933 52.445C21.365 53.7296 18.4238 55.6424 15.9403 58.0723C13.4576 60.5277 11.4822 63.4483 10.1266 66.6663C8.66046 70.1667 7.92966 73.9308 7.9796 77.7255C7.99538 81.0222 8.57237 84.2926 9.68585 87.3956C10.8125 90.6246 12.5504 93.6066 14.8046 96.1785C17.1954 98.8795 20.1219 101.053 23.3981 102.562C27.2074 104.281 31.3533 105.124 35.5312 105.029C39.293 105.087 43.0231 104.332 46.4664 102.816C49.6157 101.408 52.468 99.4133 54.8705 96.9377C57.2618 94.4831 59.1139 91.5555 60.3084 88.3436C61.4008 85.3115 61.948 75.0734 61.9498 57.6286V50.4249H35.1391Z" fill="white"/>
<path d="M108.959 50.5516H86.9645V111.222H79.0011L79.1309 42.7141H108.959V50.5516Z" fill="white"/>
<path d="M107.695 78.8632C107.701 74.3672 108.537 69.9114 110.161 65.7192C113.429 57.0431 119.96 49.9888 128.359 46.0633C132.974 43.9403 138.007 42.8821 143.086 42.9672C146.538 42.9672 149.693 43.0504 152.55 43.218C155.349 43.3795 158.135 43.7173 160.892 44.2294C163.649 44.7533 166.356 45.5149 168.982 46.5043C171.943 47.6434 174.817 48.9991 177.579 50.5604V146.748H169.615L169.364 102.131C166.297 105.571 162.609 108.401 158.493 110.473C153.617 112.86 148.236 114.031 142.81 113.886C137.792 113.961 132.815 112.97 128.208 110.979C124.036 109.159 120.274 106.515 117.148 103.205C114.115 99.9605 111.735 96.1633 110.137 92.019C108.504 87.8261 107.676 83.3626 107.695 78.8632ZM115.658 78.8632C115.613 82.6776 116.343 86.4623 117.805 89.9857C119.144 93.2138 121.122 96.1373 123.621 98.5811C126.119 101.025 129.086 102.938 132.342 104.206C135.683 105.522 139.244 106.187 142.834 106.164C146.512 106.185 150.159 105.499 153.577 104.144C156.855 102.857 159.841 100.926 162.36 98.4649C164.845 96.0227 166.802 93.0979 168.112 89.8695C169.488 86.417 170.132 82.7163 170.004 79.0018L169.626 55.1116C165.485 53.6439 161.236 52.5023 156.917 51.6985C153.437 51.0585 149.909 50.7201 146.371 50.6872C141.237 50.5117 136.132 51.5301 131.458 53.6619C127.833 55.3786 124.621 57.8569 122.04 60.9277C119.799 63.6454 118.123 66.7832 117.111 70.1569C116.218 72.9762 115.729 75.9069 115.658 78.8632Z" fill="white"/>
<path d="M239.525 111.221L239.398 104.018C236.544 106.93 233.066 109.155 229.225 110.525C225.323 111.981 221.192 112.73 217.027 112.737C216.603 112.737 215.656 112.716 214.183 112.675C212.421 112.597 210.667 112.386 208.937 112.043C206.664 111.589 204.441 110.911 202.301 110.02C199.844 109.017 197.563 107.631 195.541 105.912C192.282 102.923 189.79 99.1953 188.273 95.0419C186.457 90.0643 185.579 84.7935 185.682 79.4962V44.23H193.645V79.5081C193.519 83.7251 194.118 87.9315 195.417 91.9457C196.418 94.9222 198.157 97.5967 200.47 99.7198C202.615 101.633 205.165 103.037 207.928 103.827C210.639 104.618 213.447 105.023 216.27 105.029C219.391 105.228 222.521 104.8 225.474 103.768C228.426 102.736 231.142 101.122 233.46 99.0227C235.58 96.7293 237.212 94.0289 238.255 91.0848C239.298 88.1408 239.731 85.0147 239.528 81.8979V44.23H247.491V111.221H239.525Z" fill="white"/>
<path d="M325.473 80.3822H263.55C263.77 84.3025 264.918 88.1152 266.9 91.5047C268.649 94.4586 270.943 97.0526 273.66 99.1508C276.192 101.09 279.035 102.587 282.067 103.575C284.817 104.505 287.696 104.997 290.598 105.03C295.795 105.087 300.894 103.613 305.26 100.795C309.798 97.79 313.392 93.5612 315.624 88.5973H324.345C322.734 92.4607 320.585 96.0778 317.963 99.3409C315.619 102.246 312.849 104.781 309.749 106.86C304.04 110.672 297.335 112.716 290.471 112.738C285.661 112.79 280.889 111.87 276.443 110.034C272.288 108.319 268.509 105.808 265.318 102.642C262.168 99.4757 259.676 95.7172 257.988 91.5826C254.426 82.695 254.448 72.7732 258.05 63.9017C259.796 59.7473 262.33 55.9691 265.51 52.7765C268.708 49.5912 272.511 47.0779 276.694 45.384C285.276 41.9547 294.828 41.8414 303.489 45.0671C307.546 46.5829 311.279 48.856 314.489 51.7652C317.753 54.7586 320.394 58.3679 322.26 62.3846C324.292 66.7716 325.43 71.5196 325.608 76.3512L325.473 80.3822ZM317.258 72.6701C316.845 69.5884 315.813 66.6218 314.224 63.9492C312.635 61.2676 310.605 58.875 308.218 56.8709C305.827 54.8541 303.114 53.2528 300.192 52.1335C297.292 51.0044 294.206 50.4248 291.093 50.4263C286.265 50.3836 281.509 51.5968 277.29 53.945C273.071 56.2933 269.535 59.6965 267.027 63.8225C265.381 66.5305 264.286 69.5373 263.807 72.6701H317.258Z" fill="white"/>
<path d="M332.297 111.223V19.5845H340.258V111.223H332.297Z" fill="white"/>
<path d="M346.834 111.223V19.5845H354.784V111.223H346.834Z" fill="white"/>
<path d="M422.927 111.221L422.8 101.11C419.681 104.838 415.746 107.799 411.3 109.763C406.509 111.81 401.341 112.823 396.133 112.737C391.067 112.821 386.043 111.807 381.406 109.763C377.239 107.905 373.48 105.239 370.347 101.921C367.317 98.6846 364.955 94.8841 363.395 90.7348C360.171 82.2632 360.194 72.8984 363.46 64.4429C365.048 60.3134 367.43 56.5356 370.471 53.3217C373.612 50.0459 377.371 47.4246 381.531 45.6096C386.138 43.6186 391.115 42.6273 396.133 42.7022H430.891V111.209L422.927 111.221ZM396.133 50.4248C392.52 50.4078 388.938 51.094 385.587 52.445C382.359 53.7295 379.417 55.6423 376.934 58.0722C374.452 60.5284 372.477 63.4488 371.12 66.6663C369.654 70.1667 368.923 73.9308 368.973 77.7255C368.989 81.0222 369.566 84.2926 370.679 87.3956C371.807 90.6242 373.545 93.606 375.798 96.1785C378.189 98.8795 381.115 101.053 384.392 102.562C388.201 104.281 392.347 105.124 396.525 105.029C400.287 105.087 404.017 104.332 407.46 102.816C410.61 101.409 413.462 99.4139 415.864 96.9377C418.255 94.4831 420.107 91.5555 421.302 88.3436C422.394 85.3115 422.941 75.0734 422.943 57.6286V50.4248H396.133Z" fill="white"/>
<path opacity="0.75" d="M440.75 32.8975C473.528 32.8975 473.647 0 473.647 0C473.647 0 440.75 0.119021 440.75 32.8975Z" fill="white"/>
<path d="M440.75 41.6963C440.75 74.4748 473.647 74.5938 473.647 74.5938C473.647 74.5938 473.528 41.6963 440.75 41.6963Z" fill="white"/>
<path opacity="0.5" d="M398.465 0.010498C398.465 0.010498 398.581 32.908 431.36 32.908C431.36 0.118701 398.465 0.010498 398.465 0.010498Z" fill="white"/>
<path d="M191.152 145.722C190.005 145.747 188.871 145.468 187.867 144.912C186.941 144.381 186.193 143.587 185.717 142.632C185.183 141.526 184.922 140.308 184.957 139.081C184.924 137.67 185.213 136.269 185.804 134.987C186.323 133.868 187.161 132.927 188.213 132.283C189.324 131.632 190.595 131.305 191.882 131.337C192.821 131.327 193.755 131.472 194.646 131.769C195.457 132.041 196.202 132.477 196.836 133.051L195.966 134.571C195.423 134.071 194.795 133.673 194.111 133.397C193.409 133.141 192.667 133.018 191.92 133.033C190.989 133.006 190.071 133.26 189.286 133.763C188.535 134.278 187.955 135.005 187.621 135.853C187.216 136.886 187.021 137.988 187.048 139.097C186.961 140.406 187.357 141.701 188.162 142.737C188.563 143.171 189.055 143.51 189.603 143.73C190.151 143.95 190.741 144.047 191.331 144.011C192.014 144.007 192.691 143.883 193.332 143.646C194.067 143.37 194.75 142.973 195.354 142.472L195.947 143.992C195.34 144.56 194.621 144.995 193.835 145.266C192.973 145.571 192.066 145.725 191.152 145.722Z" fill="white"/>
<path d="M202.045 145.702C201.269 145.721 200.503 145.518 199.836 145.12C199.193 144.721 198.679 144.146 198.354 143.463C197.979 142.664 197.794 141.789 197.813 140.907C197.791 139.908 197.994 138.917 198.405 138.006C198.763 137.221 199.334 136.553 200.052 136.076C200.776 135.608 201.624 135.366 202.486 135.383C203.267 135.359 204.037 135.572 204.695 135.994C205.303 136.406 205.755 137.011 205.977 137.712L205.706 138.006L205.904 135.622H207.859L207.069 145.564H205.117L205.312 143.13L205.512 143.466C205.354 143.922 205.09 144.334 204.741 144.669C204.389 145.009 203.969 145.271 203.508 145.437C203.04 145.61 202.545 145.7 202.045 145.702ZM202.637 144.144C203.052 144.157 203.464 144.067 203.835 143.883C204.207 143.698 204.528 143.425 204.768 143.087C205.334 142.248 205.611 141.248 205.558 140.237C205.617 139.366 205.361 138.501 204.836 137.803C204.554 137.52 204.216 137.301 203.843 137.157C203.471 137.013 203.073 136.948 202.674 136.967C202.276 136.986 201.885 137.09 201.529 137.269C201.172 137.449 200.857 137.7 200.604 138.009C200.035 138.852 199.758 139.857 199.814 140.873C199.759 141.741 200.023 142.6 200.555 143.287C200.816 143.577 201.139 143.803 201.499 143.95C201.86 144.098 202.249 144.162 202.637 144.139V144.144Z" fill="white"/>
<path d="M209.658 149.817L210.566 138.413C210.644 137.482 210.664 136.546 210.626 135.612H212.5L212.54 137.624H212.362C212.528 137.17 212.794 136.759 213.141 136.421C213.492 136.076 213.912 135.81 214.374 135.639C214.847 135.461 215.349 135.369 215.855 135.369C216.635 135.352 217.403 135.555 218.073 135.954C218.719 136.349 219.237 136.923 219.563 137.608C219.939 138.406 220.124 139.281 220.103 140.163C220.125 141.162 219.924 142.154 219.514 143.065C219.154 143.85 218.583 144.519 217.865 144.998C217.132 145.466 216.278 145.705 215.409 145.687C214.632 145.709 213.866 145.501 213.208 145.088C212.596 144.685 212.146 144.079 211.935 143.378L212.205 142.986L211.664 149.812L209.658 149.817ZM215.144 144.138C215.563 144.156 215.98 144.069 216.357 143.886C216.735 143.704 217.061 143.431 217.307 143.091C217.87 142.247 218.143 141.243 218.086 140.23C218.141 139.363 217.882 138.506 217.356 137.814C217.079 137.527 216.744 137.301 216.373 137.154C216.002 137.006 215.604 136.94 215.205 136.958C214.806 136.977 214.416 137.081 214.061 137.262C213.705 137.443 213.392 137.699 213.143 138.011C212.572 138.848 212.291 139.851 212.346 140.864C212.286 141.737 212.545 142.601 213.076 143.297C213.336 143.582 213.657 143.805 214.015 143.951C214.373 144.096 214.759 144.161 215.144 144.138Z" fill="white"/>
<path d="M221.319 137.158L221.438 135.62H228.109L227.99 137.158H221.319ZM227.417 143.867L227.279 145.489C227.051 145.568 226.817 145.625 226.578 145.657C226.326 145.69 226.073 145.706 225.819 145.706C225.395 145.735 224.97 145.674 224.571 145.526C224.173 145.378 223.811 145.146 223.509 144.848C223.229 144.494 223.024 144.087 222.909 143.65C222.793 143.214 222.77 142.757 222.839 142.311L223.569 133.138L225.602 132.447L224.832 142.155C224.791 142.543 224.842 142.934 224.98 143.299C225.082 143.553 225.275 143.76 225.521 143.88C225.785 143.997 226.071 144.055 226.359 144.05C226.531 144.05 226.703 144.038 226.873 144.011C227.06 143.977 227.245 143.929 227.425 143.867H227.417Z" fill="white"/>
<path d="M232.724 145.702C232.241 145.737 231.755 145.663 231.303 145.488C230.851 145.313 230.443 145.04 230.109 144.688C229.796 144.259 229.572 143.771 229.452 143.254C229.331 142.737 229.317 142.2 229.409 141.677L229.863 135.621H231.875L231.383 141.569C231.272 142.235 231.416 142.919 231.786 143.484C231.981 143.703 232.224 143.875 232.496 143.984C232.768 144.093 233.062 144.137 233.354 144.114C233.717 144.13 234.079 144.071 234.416 143.937C234.753 143.802 235.058 143.597 235.309 143.336C235.825 142.746 236.124 141.998 236.158 141.215L236.61 135.632H238.584L237.813 145.574H235.861L236.018 143.504L236.288 143.484C236.02 144.168 235.536 144.746 234.909 145.13C234.25 145.523 233.492 145.722 232.724 145.702Z" fill="white"/>
<path d="M240.675 145.564L241.248 138.423C241.289 137.96 241.313 137.495 241.327 137.022C241.34 136.549 241.327 136.082 241.308 135.622H243.182L243.241 138.126L242.984 137.712C243.225 137.005 243.703 136.401 244.336 136.005C244.965 135.596 245.699 135.38 246.448 135.383C246.617 135.384 246.785 135.397 246.951 135.422C247.095 135.445 247.237 135.478 247.376 135.522L247.219 137.318C247.042 137.255 246.862 137.205 246.678 137.168C246.48 137.134 246.279 137.117 246.078 137.12C245.517 137.098 244.962 137.238 244.48 137.525C244.07 137.782 243.739 138.147 243.522 138.58C243.301 139.031 243.17 139.521 243.136 140.022L242.684 145.564H240.675Z" fill="white"/>
<path d="M248.114 145.565L248.903 135.622H250.896L250.107 145.565H248.114ZM249.082 131.28H251.391L251.232 133.373H248.903L249.082 131.28Z" fill="white"/>
<path d="M252.986 145.564L253.559 138.422C253.637 137.491 253.657 136.556 253.619 135.622H255.493L255.533 137.633H255.317C255.588 136.941 256.081 136.359 256.718 135.976C257.39 135.573 258.162 135.368 258.946 135.383C259.44 135.344 259.936 135.416 260.399 135.594C260.862 135.772 261.279 136.052 261.62 136.412C261.934 136.842 262.159 137.33 262.283 137.848C262.406 138.366 262.425 138.903 262.339 139.429L261.847 145.564H259.873L260.346 139.547C260.456 138.881 260.312 138.198 259.943 137.633C259.741 137.408 259.489 137.234 259.207 137.125C258.926 137.015 258.622 136.972 258.321 137C257.945 136.98 257.569 137.038 257.217 137.172C256.866 137.306 256.546 137.513 256.28 137.779C255.757 138.367 255.453 139.117 255.42 139.903L254.968 145.564H252.986Z" fill="white"/>
<path d="M265.379 147.401C266.457 148.084 267.713 148.434 268.989 148.407C269.368 148.432 269.748 148.38 270.107 148.256C270.467 148.133 270.798 147.94 271.082 147.687C271.617 147.086 271.917 146.312 271.928 145.507L272.125 142.942L272.396 142.979C272.242 143.446 271.978 143.869 271.625 144.212C271.269 144.562 270.842 144.831 270.373 145.002C269.883 145.183 269.365 145.274 268.843 145.272C268.044 145.292 267.254 145.098 266.555 144.71C265.912 144.335 265.394 143.78 265.065 143.112C264.702 142.359 264.522 141.531 264.54 140.695C264.519 139.741 264.719 138.795 265.125 137.931C265.484 137.173 266.045 136.528 266.747 136.068C267.488 135.603 268.349 135.365 269.224 135.386C270.018 135.359 270.802 135.572 271.474 135.997C272.081 136.41 272.532 137.015 272.755 137.715L272.52 137.754L272.677 135.625H274.651L273.861 145.332C273.898 145.976 273.794 146.62 273.555 147.22C273.315 147.819 272.948 148.359 272.478 148.802C272.007 149.244 271.446 149.577 270.833 149.779C270.22 149.98 269.57 150.045 268.929 149.969C267.511 150.006 266.109 149.658 264.873 148.96L265.379 147.401ZM269.383 143.69C269.796 143.705 270.206 143.623 270.581 143.452C270.957 143.28 271.287 143.024 271.547 142.703C272.121 141.938 272.409 140.995 272.358 140.04C272.415 139.209 272.146 138.388 271.609 137.752C271.335 137.481 271.007 137.271 270.646 137.135C270.286 136.999 269.901 136.94 269.516 136.962C269.101 136.944 268.687 137.024 268.308 137.196C267.93 137.367 267.597 137.626 267.336 137.95C266.76 138.729 266.473 139.685 266.525 140.654C266.475 141.467 266.736 142.268 267.255 142.896C267.532 143.173 267.865 143.388 268.233 143.525C268.6 143.663 268.992 143.719 269.383 143.69Z" fill="white"/>
<path d="M282.047 145.563L282.617 138.422C282.658 137.959 282.685 137.494 282.698 137.021C282.712 136.548 282.698 136.081 282.677 135.621H284.551L284.591 137.632L284.321 137.614C284.588 136.93 285.063 136.346 285.679 135.946C286.295 135.546 287.021 135.349 287.755 135.382C288.563 135.336 289.359 135.597 289.983 136.112C290.267 136.39 290.494 136.723 290.649 137.088C290.805 137.454 290.888 137.846 290.892 138.243L290.399 137.771C290.683 137.046 291.186 136.428 291.838 136.004C292.505 135.584 293.28 135.367 294.069 135.382C294.533 135.345 295 135.419 295.43 135.597C295.86 135.776 296.242 136.055 296.543 136.411C297.126 137.301 297.356 138.377 297.187 139.428L296.711 145.563H294.756L295.229 139.507C295.346 138.858 295.234 138.189 294.912 137.614C294.741 137.396 294.517 137.225 294.262 137.116C294.007 137.007 293.728 136.965 293.452 136.992C293.111 136.977 292.77 137.038 292.455 137.17C292.139 137.302 291.857 137.5 291.627 137.754C291.126 138.386 290.846 139.165 290.829 139.972L290.394 145.555H288.401L288.877 139.498C288.993 138.849 288.881 138.181 288.561 137.606C288.392 137.39 288.171 137.219 287.919 137.111C287.668 137.002 287.393 136.958 287.119 136.984C286.776 136.967 286.433 137.026 286.116 137.158C285.798 137.29 285.514 137.491 285.283 137.746C284.788 138.38 284.512 139.159 284.496 139.964L284.042 145.548L282.047 145.563Z" fill="white"/>
<path d="M304.167 145.704C303.286 145.727 302.413 145.522 301.634 145.111C300.928 144.73 300.353 144.146 299.984 143.434C299.587 142.639 299.391 141.76 299.414 140.871C299.389 139.866 299.598 138.869 300.025 137.959C300.406 137.171 301.009 136.513 301.761 136.065C302.551 135.608 303.452 135.377 304.365 135.396C305.244 135.373 306.115 135.579 306.89 135.995C307.591 136.387 308.163 136.973 308.54 137.683C308.942 138.47 309.141 139.345 309.121 140.23C309.147 141.242 308.934 142.246 308.499 143.161C308.117 143.947 307.514 144.606 306.763 145.054C305.973 145.503 305.076 145.728 304.167 145.704ZM304.189 144.146C304.766 144.163 305.331 143.985 305.795 143.643C306.254 143.283 306.598 142.795 306.782 142.242C307.012 141.572 307.123 140.867 307.109 140.16C307.165 139.31 306.913 138.469 306.398 137.791C306.143 137.509 305.828 137.288 305.476 137.145C305.124 137.002 304.744 136.94 304.365 136.963C303.783 136.945 303.212 137.122 302.742 137.466C302.283 137.828 301.938 138.314 301.747 138.867C301.513 139.528 301.399 140.227 301.412 140.928C301.35 141.787 301.603 142.639 302.123 143.326C302.385 143.606 302.707 143.825 303.064 143.966C303.421 144.107 303.806 144.167 304.189 144.14V144.146Z" fill="white"/>
<path d="M311.033 145.563L311.607 138.421C311.647 137.959 311.671 137.494 311.685 137.021C311.699 136.547 311.685 136.081 311.666 135.621H313.54L313.581 137.632L313.324 137.613C313.591 136.929 314.066 136.346 314.682 135.946C315.298 135.546 316.024 135.348 316.758 135.382C317.566 135.335 318.362 135.596 318.986 136.112C319.559 136.674 319.885 137.441 319.894 138.243L319.4 137.771C319.685 137.046 320.189 136.428 320.841 136.004C321.508 135.583 322.283 135.367 323.072 135.382C323.536 135.345 324.003 135.42 324.433 135.599C324.863 135.777 325.244 136.056 325.546 136.411C326.128 137.302 326.357 138.377 326.19 139.428L325.714 145.563H323.742L324.216 139.507C324.333 138.858 324.221 138.188 323.899 137.613C323.727 137.396 323.503 137.224 323.248 137.116C322.993 137.007 322.715 136.965 322.439 136.992C322.097 136.977 321.757 137.038 321.441 137.17C321.126 137.302 320.843 137.5 320.614 137.753C320.106 138.383 319.821 139.163 319.803 139.972L319.367 145.555H317.374L317.848 139.498C317.965 138.849 317.853 138.181 317.531 137.605C317.363 137.389 317.144 137.218 316.892 137.109C316.64 137 316.365 136.957 316.093 136.984C315.749 136.967 315.406 137.026 315.089 137.158C314.771 137.29 314.487 137.49 314.257 137.745C313.76 138.38 313.483 139.159 313.467 139.964L313.015 145.547L311.033 145.563Z" fill="white"/>
<path d="M337.02 144.436C336.532 144.864 335.956 145.182 335.333 145.365C334.655 145.587 333.946 145.7 333.232 145.7C332.335 145.725 331.446 145.521 330.65 145.107C329.938 144.728 329.357 144.144 328.981 143.43C328.578 142.644 328.378 141.769 328.4 140.886C328.379 139.891 328.588 138.905 329.011 138.004C329.39 137.209 329.989 136.539 330.736 136.073C331.512 135.602 332.406 135.361 333.313 135.38C334.151 135.355 334.979 135.561 335.709 135.973C336.385 136.383 336.903 137.008 337.18 137.749C337.509 138.671 337.602 139.662 337.45 140.63H330.131L330.209 139.445H336.366L335.774 139.84C335.843 139.453 335.832 139.055 335.742 138.672C335.652 138.289 335.484 137.927 335.249 137.612C335.02 137.353 334.735 137.148 334.415 137.015C334.096 136.881 333.751 136.822 333.405 136.84C332.971 136.816 332.538 136.898 332.143 137.078C331.748 137.259 331.402 137.533 331.136 137.877C330.552 138.767 330.275 139.824 330.347 140.886C330.293 141.75 330.56 142.603 331.096 143.282C331.381 143.581 331.729 143.812 332.115 143.961C332.501 144.11 332.914 144.172 333.327 144.142C333.89 144.141 334.45 144.05 334.984 143.871C335.538 143.687 336.053 143.403 336.504 143.033L337.02 144.436Z" fill="white"/>
<path d="M339.328 145.564L339.901 138.422C339.979 137.491 339.999 136.556 339.961 135.622H341.835L341.875 137.633H341.656C341.93 136.942 342.422 136.36 343.057 135.976C343.73 135.573 344.503 135.367 345.288 135.383C345.782 135.344 346.278 135.418 346.741 135.595C347.204 135.773 347.621 136.052 347.962 136.411C348.276 136.842 348.501 137.33 348.625 137.848C348.748 138.366 348.768 138.903 348.681 139.428L348.187 145.564H346.215L346.689 139.547C346.797 138.881 346.652 138.198 346.283 137.633C346.083 137.41 345.833 137.237 345.555 137.127C345.276 137.017 344.975 136.974 344.677 137C344.301 136.98 343.924 137.039 343.572 137.173C343.22 137.307 342.9 137.514 342.632 137.779C342.112 138.367 341.809 139.117 341.775 139.902L341.321 145.564H339.328Z" fill="white"/>
<path d="M350.377 137.158L350.496 135.62H357.167L357.048 137.158H350.377ZM356.474 143.867L356.336 145.489C356.109 145.568 355.875 145.625 355.636 145.657C355.384 145.69 355.13 145.706 354.876 145.706C354.453 145.735 354.027 145.674 353.629 145.526C353.231 145.378 352.869 145.146 352.567 144.848C352.286 144.494 352.082 144.087 351.967 143.65C351.851 143.214 351.827 142.757 351.896 142.311L352.626 133.138L354.66 132.447L353.889 142.155C353.849 142.543 353.9 142.934 354.038 143.299C354.14 143.553 354.333 143.76 354.579 143.88C354.842 143.997 355.129 144.055 355.417 144.05C355.589 144.05 355.761 144.038 355.931 144.011C356.115 143.977 356.297 143.928 356.474 143.867Z" fill="white"/>
<path d="M361.816 145.701C361.054 145.708 360.295 145.598 359.566 145.377C358.883 145.167 358.237 144.849 357.652 144.438L358.382 143C358.879 143.396 359.44 143.705 360.039 143.916C360.618 144.109 361.225 144.205 361.835 144.203C362.409 144.239 362.981 144.12 363.492 143.857C363.664 143.755 363.805 143.608 363.9 143.433C363.995 143.258 364.041 143.061 364.033 142.861C364.038 142.704 364.004 142.547 363.934 142.406C363.863 142.264 363.759 142.142 363.63 142.051C363.312 141.823 362.959 141.649 362.584 141.537C362.157 141.399 361.705 141.266 361.232 141.133C360.767 141.003 360.314 140.832 359.88 140.62C359.473 140.425 359.121 140.134 358.855 139.771C358.58 139.357 358.445 138.866 358.468 138.37C358.456 137.802 358.633 137.247 358.971 136.791C359.338 136.32 359.826 135.959 360.383 135.745C361.062 135.484 361.786 135.357 362.514 135.371C363.208 135.368 363.898 135.481 364.555 135.707C365.157 135.904 365.71 136.227 366.178 136.653L365.469 138.054C364.646 137.327 363.593 136.914 362.495 136.891C361.931 136.855 361.37 136.978 360.872 137.245C360.693 137.353 360.547 137.507 360.448 137.691C360.349 137.875 360.301 138.083 360.31 138.292C360.306 138.449 360.34 138.604 360.409 138.745C360.477 138.886 360.579 139.008 360.705 139.102C361.018 139.329 361.368 139.5 361.74 139.605C362.168 139.735 362.618 139.867 363.092 140C363.559 140.127 364.012 140.299 364.444 140.514C364.849 140.709 365.203 140.996 365.48 141.35C365.767 141.755 365.91 142.246 365.886 142.743C365.901 143.168 365.806 143.59 365.611 143.969C365.416 144.348 365.127 144.67 364.771 144.905C363.891 145.467 362.859 145.746 361.816 145.701Z" fill="white"/>
<path d="M377.884 145.704C377.002 145.727 376.128 145.523 375.348 145.111C374.643 144.73 374.069 144.146 373.701 143.434C373.303 142.639 373.106 141.76 373.128 140.871C373.104 139.866 373.314 138.869 373.742 137.958C374.122 137.171 374.726 136.512 375.478 136.065C376.268 135.608 377.169 135.377 378.082 135.396C378.961 135.373 379.832 135.579 380.607 135.995C381.308 136.387 381.88 136.973 382.254 137.683C382.658 138.47 382.859 139.345 382.838 140.229C382.864 141.242 382.651 142.246 382.216 143.161C381.833 143.946 381.23 144.604 380.48 145.054C379.69 145.503 378.793 145.728 377.884 145.704ZM377.903 144.146C378.485 144.166 379.057 143.989 379.526 143.643C379.985 143.283 380.328 142.795 380.513 142.242C380.74 141.572 380.85 140.867 380.837 140.159C380.894 139.31 380.642 138.469 380.129 137.791C379.873 137.509 379.558 137.288 379.206 137.145C378.854 137.002 378.474 136.94 378.095 136.963C377.513 136.945 376.942 137.122 376.473 137.466C376.013 137.827 375.667 138.314 375.478 138.867C375.243 139.528 375.13 140.227 375.142 140.928C375.081 141.787 375.333 142.638 375.851 143.326C376.112 143.604 376.431 143.821 376.786 143.962C377.141 144.103 377.522 144.164 377.903 144.14V144.146Z" fill="white"/>
<path d="M384.058 137.16L384.196 135.622H390.846L390.727 137.16H384.058ZM390.905 132.738C390.597 132.651 390.279 132.605 389.959 132.601C389.671 132.598 389.385 132.655 389.12 132.768C388.855 132.889 388.634 133.089 388.488 133.341C388.3 133.698 388.195 134.093 388.182 134.497L387.295 145.564H385.321L386.208 134.317C386.228 133.37 386.601 132.466 387.255 131.781C387.9 131.194 388.752 130.886 389.623 130.924C389.864 130.924 390.104 130.941 390.343 130.973C390.579 131.005 390.814 131.055 391.043 131.122L390.905 132.738Z" fill="white"/>
<path d="M401.5 145.702C400.619 145.725 399.746 145.521 398.966 145.109C398.26 144.73 397.685 144.145 397.317 143.433C396.921 142.644 396.725 141.77 396.746 140.888C396.721 139.879 396.937 138.877 397.376 137.968C397.772 137.166 398.397 136.499 399.172 136.053C400.01 135.591 400.957 135.359 401.914 135.382C402.622 135.373 403.327 135.486 403.996 135.718C404.585 135.922 405.126 136.244 405.586 136.664L404.856 138.086C404.433 137.74 403.959 137.462 403.452 137.257C402.974 137.074 402.466 136.982 401.954 136.987C401.509 136.963 401.065 137.043 400.657 137.223C400.249 137.403 399.889 137.677 399.607 138.022C399.007 138.862 398.714 139.883 398.777 140.913C398.728 141.764 398.999 142.602 399.537 143.262C399.808 143.55 400.138 143.775 400.504 143.921C400.871 144.067 401.265 144.131 401.66 144.109C402.156 144.114 402.648 144.022 403.109 143.838C403.604 143.627 404.066 143.345 404.48 143.001L404.994 144.439C404.537 144.848 404.004 145.164 403.425 145.367C402.808 145.591 402.157 145.705 401.5 145.702Z" fill="white"/>
<path d="M410.814 145.702C410.038 145.72 409.272 145.518 408.605 145.12C407.963 144.721 407.45 144.146 407.126 143.463C406.75 142.665 406.564 141.789 406.585 140.907C406.563 139.908 406.765 138.917 407.177 138.006C407.535 137.221 408.106 136.553 408.824 136.076C409.548 135.608 410.396 135.366 411.258 135.383C412.039 135.359 412.809 135.572 413.467 135.994C414.075 136.407 414.527 137.012 414.751 137.712L414.494 138.006L414.692 135.622H416.644L415.855 145.564H413.902L414.1 143.13L414.297 143.466C414.14 143.923 413.876 144.335 413.526 144.669C413.175 145.009 412.754 145.272 412.293 145.437C411.82 145.613 411.319 145.703 410.814 145.702ZM411.406 144.144C411.821 144.158 412.233 144.067 412.605 143.883C412.977 143.698 413.297 143.425 413.537 143.087C414.104 142.248 414.382 141.248 414.327 140.237C414.386 139.366 414.13 138.502 413.608 137.803C413.326 137.52 412.988 137.301 412.615 137.157C412.243 137.013 411.845 136.948 411.446 136.967C411.047 136.986 410.657 137.09 410.301 137.269C409.944 137.449 409.629 137.7 409.376 138.009C408.806 138.851 408.529 139.857 408.586 140.873C408.531 141.74 408.794 142.599 409.324 143.287C409.586 143.576 409.908 143.803 410.269 143.95C410.629 144.098 411.018 144.162 411.406 144.139V144.144Z" fill="white"/>
<path d="M418.765 145.564L419.335 138.423C419.376 137.96 419.403 137.495 419.417 137.022C419.43 136.549 419.417 136.082 419.395 135.622H421.272L421.328 138.126L421.071 137.712C421.311 137.004 421.789 136.4 422.424 136.005C423.051 135.596 423.786 135.38 424.535 135.383C424.704 135.384 424.872 135.397 425.038 135.422C425.181 135.445 425.322 135.478 425.46 135.522L425.303 137.318C425.127 137.255 424.946 137.205 424.762 137.168C424.564 137.134 424.363 137.117 424.162 137.12C423.601 137.098 423.046 137.238 422.564 137.525C422.154 137.782 421.823 138.147 421.607 138.58C421.385 139.03 421.255 139.521 421.223 140.022L420.769 145.564H418.765Z" fill="white"/>
<path d="M434.451 144.439C433.962 144.866 433.386 145.183 432.764 145.367C432.085 145.589 431.376 145.702 430.662 145.702C429.764 145.728 428.875 145.523 428.077 145.11C427.366 144.73 426.785 144.146 426.409 143.433C426.007 142.646 425.807 141.772 425.828 140.889C425.806 139.893 426.015 138.907 426.439 138.006C426.818 137.21 427.417 136.54 428.167 136.076C428.941 135.605 429.834 135.364 430.741 135.383C431.579 135.359 432.408 135.564 433.139 135.976C433.815 136.386 434.332 137.011 434.608 137.751C434.936 138.674 435.029 139.665 434.878 140.632H427.558L427.637 139.448H433.794L433.202 139.843C433.271 139.455 433.261 139.058 433.171 138.674C433.081 138.291 432.914 137.93 432.68 137.614C432.45 137.355 432.164 137.151 431.844 137.017C431.525 136.884 431.179 136.824 430.833 136.843C430.399 136.819 429.966 136.902 429.571 137.082C429.176 137.262 428.83 137.536 428.564 137.879C427.981 138.77 427.704 139.826 427.775 140.889C427.722 141.752 427.989 142.606 428.526 143.285C428.811 143.584 429.158 143.816 429.544 143.965C429.929 144.114 430.343 144.175 430.754 144.144C431.318 144.144 431.878 144.052 432.412 143.874C432.966 143.69 433.481 143.406 433.932 143.035L434.451 144.439Z" fill="white"/>
</svg>
