<svg width="12" height="18" viewBox="0 0 12 18" fill="none" xmlns="http://www.w3.org/2000/svg">
<g id="assistance 1">
<path id="Vector" d="M6.57731 17.1849C5.86425 17.1793 5.15257 17.121 4.44816 17.01V16.1446C4.46253 15.4669 4.24241 14.8054 3.82476 14.2716L1.97969 11.8106C1.48667 11.187 1.22732 10.4106 1.24674 9.61586V6.47628H1.53333C1.70286 6.47542 1.86839 6.52932 2.00449 6.6304C2.14058 6.7315 2.24009 6.87404 2.28825 7.03658L3.10093 9.73671L3.16779 9.71599C3.32383 9.66912 3.46049 9.57347 3.55795 9.4429C3.65542 9.31234 3.70838 9.15382 3.70894 8.9909V2.09179C3.70494 1.9999 3.71952 1.90824 3.75194 1.82217C3.78435 1.73609 3.83398 1.65757 3.89758 1.59114C3.9612 1.5247 4.03743 1.47156 4.12203 1.43545C4.20662 1.39932 4.2978 1.38082 4.38978 1.38082C4.48176 1.38082 4.57262 1.39932 4.65722 1.43545C4.74181 1.47156 4.81836 1.5247 4.88196 1.59114C4.94557 1.65757 4.99489 1.73609 5.0273 1.82217C5.05971 1.90824 5.0746 1.9999 5.07062 2.09179V6.6665H5.13591C5.27348 6.67422 5.40985 6.6844 5.54742 6.69726H5.62212V1.02863C5.62212 0.847907 5.69397 0.674597 5.82177 0.546805C5.94956 0.419012 6.12287 0.347168 6.30359 0.347168C6.48432 0.347168 6.65763 0.419012 6.78543 0.546805C6.91321 0.674597 6.98506 0.847907 6.98506 1.02863V6.93395L7.03748 6.94682C7.17505 6.97896 7.31275 7.01217 7.44775 7.04946L7.53532 7.07269V2.43519C7.53532 2.25447 7.60686 2.08116 7.73464 1.95337C7.86243 1.82557 8.03605 1.75373 8.21679 1.75373C8.39751 1.75373 8.57082 1.82557 8.69862 1.95337C8.82641 2.08116 8.89793 2.25447 8.89793 2.43519V7.54854L8.93906 7.56644C9.07663 7.62558 9.21432 7.68735 9.34932 7.75164L9.44819 7.79904V3.9419C9.44819 3.76116 9.52004 3.58786 9.64784 3.46006C9.77562 3.33227 9.94894 3.26043 10.1297 3.26043C10.3104 3.26043 10.4837 3.33227 10.6115 3.46006C10.7393 3.58786 10.8111 3.76116 10.8111 3.9419V11.2243C10.8133 11.8636 10.6819 12.4965 10.4253 13.0821L10.1039 13.8356C9.93276 14.2267 9.84525 14.6494 9.84684 15.0764V16.7476C8.97357 16.9397 8.08976 17.0794 7.19976 17.1657C6.99919 17.1786 6.78688 17.1849 6.57731 17.1849Z" fill="white"/>
</g>
</svg>
