<svg width="18" height="18" viewBox="0 0 18 18" fill="none" xmlns="http://www.w3.org/2000/svg">
<g id="attendance  1" clip-path="url(#clip0_8444_12225)">
<path id="Vector" d="M8.3819 9.01526C10.6874 9.01526 12.5564 7.14627 12.5564 4.84076C12.5564 2.53524 10.6874 0.66626 8.3819 0.66626C6.07638 0.66626 4.2074 2.53524 4.2074 4.84076C4.2074 7.14627 6.07638 9.01526 8.3819 9.01526Z" fill="white"/>
<path id="Vector_2" d="M15.7995 8.03676L17.0131 9.13173C17.0805 9.19247 17.1213 9.27734 17.127 9.36794C17.1325 9.45854 17.1025 9.54764 17.0431 9.61623L11.1929 16.3332C11.1327 16.4022 11.0477 16.4447 10.9563 16.4513C10.865 16.4577 10.7748 16.4279 10.7055 16.368L6.5596 12.7843C6.52492 12.7545 6.49656 12.7179 6.4761 12.677C6.45564 12.6361 6.44329 12.5916 6.44022 12.5459C6.43714 12.5003 6.44337 12.4544 6.45816 12.4112C6.47296 12.3679 6.49627 12.3282 6.52665 12.294L7.60366 11.0759C7.66347 11.0085 7.74705 10.967 7.83694 10.9602C7.92684 10.9535 8.0157 10.9822 8.08486 11.0401L10.5092 13.0828C10.5787 13.1415 10.6686 13.1706 10.7593 13.1633C10.8501 13.156 10.9344 13.1131 10.9937 13.044L15.3013 8.06679C15.3316 8.03138 15.3688 8.00259 15.4105 7.98183C15.4522 7.96107 15.4977 7.94874 15.5442 7.94594C15.5907 7.94315 15.6373 7.94975 15.6811 7.96535C15.7251 7.98095 15.7651 8.00525 15.7995 8.03676Z" fill="white"/>
<path id="Vector_3" d="M11.8081 16.8643C11.709 16.9788 11.5883 17.0727 11.4529 17.1405C11.3175 17.2083 11.1699 17.2485 11.0189 17.2591C10.8679 17.2699 10.7161 17.2507 10.5725 17.2027C10.4289 17.1549 10.2964 17.0793 10.1821 16.9801L6.03443 13.3964C5.91867 13.2963 5.82392 13.1745 5.75574 13.0375C5.68757 12.9005 5.6475 12.7514 5.63745 12.5988C5.6274 12.4461 5.6475 12.2927 5.69715 12.1479C5.74679 12.0032 5.82476 11.8697 5.9264 11.7554L7.00196 10.5406C7.2014 10.3148 7.48148 10.1757 7.78199 10.1536C8.08248 10.1314 8.37959 10.2278 8.60999 10.422L10.6846 12.1696L13.0994 9.38086C12.6583 9.02346 12.1784 8.71719 11.6686 8.46753C10.7683 9.28326 9.59667 9.73498 8.38183 9.73498C7.167 9.73498 5.9957 9.28326 5.09546 8.46753C4.03827 8.97717 3.11412 9.72582 2.39611 10.6542C1.67811 11.5825 1.18584 12.665 0.958374 13.8164C1.74378 15.0778 2.83761 16.1187 4.13672 16.8402C5.43582 17.5617 6.89766 17.9403 8.38367 17.9403C9.86967 17.9403 11.3312 17.5617 12.6303 16.8402C13.9294 16.1187 15.0232 15.0778 15.8086 13.8164C15.7273 13.4212 15.6147 13.0331 15.4724 12.6555L11.8081 16.8643Z" fill="white"/>
<path id="Vector_4" d="M15.7995 8.03676L17.0131 9.13173C17.0805 9.19247 17.1213 9.27734 17.127 9.36794C17.1325 9.45854 17.1025 9.54764 17.0431 9.61623L11.1929 16.3332C11.1327 16.4022 11.0477 16.4447 10.9563 16.4513C10.865 16.4577 10.7748 16.4279 10.7055 16.368L6.5596 12.7843C6.52492 12.7545 6.49656 12.7179 6.4761 12.677C6.45564 12.6361 6.44329 12.5916 6.44022 12.5459C6.43714 12.5003 6.44337 12.4544 6.45816 12.4112C6.47296 12.3679 6.49627 12.3282 6.52665 12.294L7.60366 11.0759C7.66347 11.0085 7.74705 10.967 7.83694 10.9602C7.92684 10.9535 8.0157 10.9822 8.08486 11.0401L10.5092 13.0828C10.5787 13.1415 10.6686 13.1706 10.7593 13.1633C10.8501 13.156 10.9344 13.1131 10.9937 13.044L15.3013 8.06679C15.3316 8.03138 15.3688 8.00259 15.4105 7.98183C15.4522 7.96107 15.4977 7.94874 15.5442 7.94594C15.5907 7.94315 15.6373 7.94975 15.6811 7.96535C15.7251 7.98095 15.7651 8.00525 15.7995 8.03676Z" fill="white"/>
</g>
<defs>
<clipPath id="clip0_8444_12225">
<rect width="18" height="18" fill="white"/>
</clipPath>
</defs>
</svg>
