<svg width="18" height="18" viewBox="0 0 18 18" fill="none" xmlns="http://www.w3.org/2000/svg">
<g id="call 1">
<path id="Vector" d="M12.6163 7.9502C11.7093 8.77151 10.5297 9.22644 9.30615 9.22644C8.08255 9.22644 6.90259 8.77151 5.9956 7.9502C4.93047 8.46342 3.99924 9.21746 3.27576 10.1526C2.55228 11.0877 2.05631 12.1784 1.82703 13.3383C2.61856 14.6084 3.72067 15.6559 5.02917 16.3822C6.33768 17.1085 7.80958 17.4897 9.30615 17.4897C10.8027 17.4897 12.2746 17.1085 13.5831 16.3822C14.8916 15.6559 15.9933 14.6084 16.7849 13.3383C16.5557 12.1784 16.0596 11.0877 15.3362 10.1526C14.6127 9.21746 13.6815 8.46342 12.6163 7.9502ZM11.8934 13.9502C11.8934 14.0186 11.8664 14.0842 11.818 14.1326C11.7696 14.181 11.704 14.208 11.6356 14.208H10.4205C10.3866 14.208 10.353 14.2148 10.3216 14.2278C10.2904 14.2407 10.2621 14.2599 10.2382 14.2838C10.2142 14.3078 10.1951 14.336 10.1821 14.3673C10.1692 14.3986 10.1623 14.4323 10.1623 14.4662V15.6813C10.1623 15.7497 10.1353 15.8152 10.0869 15.8637C10.0385 15.912 9.97296 15.9391 9.90454 15.9391H8.70447C8.63604 15.9391 8.57047 15.912 8.5221 15.8637C8.47371 15.8152 8.44665 15.7497 8.44665 15.6813V14.4662C8.44665 14.3978 8.41923 14.3322 8.37085 14.2838C8.32246 14.2354 8.2569 14.208 8.18847 14.208H6.97339C6.90496 14.208 6.8394 14.181 6.79101 14.1326C6.74263 14.0842 6.71557 14.0186 6.71557 13.9502V12.7501C6.71557 12.6817 6.74263 12.6161 6.79101 12.5678C6.8394 12.5194 6.90496 12.4919 6.97339 12.4919H8.18847C8.2569 12.4919 8.32246 12.4649 8.37085 12.4165C8.41923 12.3681 8.44665 12.3026 8.44665 12.2341V11.019C8.44665 10.9506 8.47371 10.8851 8.5221 10.8367C8.57047 10.7883 8.63604 10.7612 8.70447 10.7612H9.90454C9.97296 10.7612 10.0385 10.7883 10.0869 10.8367C10.1353 10.8851 10.1623 10.9506 10.1623 11.019V12.2341C10.1623 12.268 10.1692 12.3017 10.1821 12.333C10.1951 12.3643 10.2142 12.3926 10.2382 12.4165C10.2621 12.4405 10.2904 12.4596 10.3216 12.4725C10.353 12.4855 10.3866 12.4919 10.4205 12.4919H11.6356C11.704 12.4919 11.7696 12.5194 11.818 12.5678C11.8664 12.6161 11.8934 12.6817 11.8934 12.7501V13.9502Z" fill="white"/>
<path id="Vector_2" d="M9.30585 8.50941C11.6288 8.50941 13.5119 6.62633 13.5119 4.30341C13.5119 1.9805 11.6288 0.0974121 9.30585 0.0974121C6.98295 0.0974121 5.09985 1.9805 5.09985 4.30341C5.09985 6.62633 6.98295 8.50941 9.30585 8.50941Z" fill="white"/>
</g>
</svg>
