<svg width="18" height="18" viewBox="0 0 18 18" fill="none" xmlns="http://www.w3.org/2000/svg">
<g id="emergency 1">
<path id="Vector" d="M17.1225 13.5001L10.7563 2.47205C10.6055 2.21137 10.3888 1.99518 10.1279 1.84473C9.86701 1.69427 9.57108 1.61475 9.2699 1.61475C8.96873 1.61475 8.67278 1.69427 8.41187 1.84473C8.15096 1.99518 7.93431 2.21137 7.78344 2.47205L1.4176 13.5001C1.26698 13.761 1.1876 14.0569 1.18762 14.3582C1.18764 14.6594 1.26695 14.9553 1.4176 15.2162C1.56827 15.4771 1.78511 15.6937 2.04602 15.8442C2.30694 15.9948 2.6028 16.0743 2.90406 16.0743H15.6362C15.9374 16.0743 16.2332 15.9948 16.4942 15.8442C16.755 15.6937 16.9719 15.4771 17.1225 15.2162C17.2733 14.9553 17.3525 14.6594 17.3526 14.3582C17.3526 14.0569 17.2733 13.761 17.1225 13.5001ZM10.3726 13.6635C10.3726 13.6979 10.3656 13.7323 10.3524 13.7642C10.3392 13.796 10.32 13.8248 10.2957 13.8491C10.2713 13.8735 10.2422 13.8931 10.2103 13.9062C10.1785 13.9194 10.1445 13.926 10.11 13.926H8.53199C8.49752 13.926 8.46349 13.9194 8.43163 13.9062C8.39979 13.8931 8.37069 13.8735 8.34631 13.8491C8.32194 13.8248 8.30274 13.796 8.28956 13.7642C8.27636 13.7323 8.26941 13.6979 8.26941 13.6635V12.0854C8.26941 12.0158 8.29708 11.9494 8.34631 11.9001C8.39555 11.8509 8.46237 11.8232 8.53199 11.8232H10.11C10.1445 11.8232 10.1785 11.8298 10.2103 11.843C10.2422 11.8562 10.2713 11.8758 10.2957 11.9001C10.32 11.9245 10.3392 11.9533 10.3524 11.9851C10.3656 12.017 10.3726 12.051 10.3726 12.0854V13.6635ZM10.3726 10.3936C10.3726 10.428 10.3656 10.4621 10.3524 10.4939C10.3392 10.5257 10.32 10.5548 10.2957 10.5792C10.2713 10.6036 10.2422 10.6228 10.2103 10.636C10.1785 10.6492 10.1445 10.6561 10.11 10.6561H8.53199C8.49746 10.6563 8.46321 10.6498 8.43128 10.6367C8.39934 10.6236 8.37036 10.604 8.34594 10.5796C8.32154 10.5552 8.30231 10.5262 8.28918 10.4943C8.27607 10.4623 8.26922 10.4281 8.26941 10.3936V5.16773C8.26941 5.09811 8.29708 5.03129 8.34631 4.98206C8.39555 4.93283 8.46237 4.90515 8.53199 4.90515H10.11C10.1445 4.90515 10.1785 4.91174 10.2103 4.92492C10.2422 4.93812 10.2713 4.95768 10.2957 4.98206C10.32 5.00643 10.3392 5.03517 10.3524 5.06702C10.3656 5.09886 10.3726 5.13326 10.3726 5.16773V10.3936Z" fill="white"/>
</g>
</svg>
