<svg width="173" height="173" viewBox="0 0 173 173" fill="none" xmlns="http://www.w3.org/2000/svg">
<circle cx="86.5" cy="86.5" r="86.5" fill="white" fill-opacity="0.26"/>
<circle cx="86.5" cy="86.5" r="86.5" fill="white" fill-opacity="0.26"/>
<circle cx="86.5" cy="86.5" r="86.5" fill="white" fill-opacity="0.26"/>
<circle cx="86.5" cy="86.5" r="71.5" fill="white" fill-opacity="0.26"/>
<circle cx="86.5" cy="86.5" r="71.5" fill="white" fill-opacity="0.26"/>
<path d="M97.8698 105.161C97.8683 105.396 97.6759 105.588 97.4442 105.588H91.912C90.851 105.59 89.9918 106.448 89.9902 107.509V113.043C89.9902 113.281 89.801 113.472 89.5646 113.472H84.1128C83.8779 113.472 83.684 113.278 83.684 113.043V107.509C83.684 106.449 82.8264 105.588 81.7654 105.588H76.2332C75.9983 105.588 75.806 105.396 75.806 105.161V99.7048C75.806 99.4698 75.9999 99.2774 76.2332 99.2774H81.7654C82.8248 99.2758 83.684 98.4178 83.684 97.3578V91.8231C83.684 91.5896 83.8748 91.3988 84.1128 91.3988H89.5646C89.8042 91.3988 89.9902 91.5865 89.9902 91.8231V97.3578C89.9918 98.4194 90.8526 99.2758 91.912 99.2774H97.4442C97.6744 99.2774 97.8683 99.4698 97.8698 99.7048V105.161ZM97.8698 105.161H99.3628M99.3628 105.161V99.7048C99.3613 98.6433 98.5036 97.7853 97.4442 97.7837H91.912C91.6756 97.7821 91.4848 97.5897 91.4832 97.3578V91.8231C91.4816 90.7631 90.624 89.9067 89.5646 89.9051H84.1128C83.0534 89.9067 82.1926 90.76 82.191 91.8231V97.3578C82.191 97.5913 82.0003 97.7821 81.7654 97.7837H76.2332C75.1722 97.7853 74.3146 98.6433 74.313 99.7048V105.161C74.3146 106.224 75.1738 107.08 76.2332 107.082H81.7654C81.9987 107.082 82.191 107.274 82.191 107.509V113.043C82.1926 114.106 83.0518 114.964 84.1128 114.965H89.5646C90.6272 114.965 91.4816 114.102 91.4832 113.043V107.509C91.4848 107.274 91.6771 107.082 91.912 107.082H97.4442C98.5021 107.08 99.3613 106.224 99.3628 105.161ZM101.911 77.7993L101.409 77.2457M101.911 77.7993L101.586 78.4712C111.206 83.1117 118.084 92.0108 120.153 102.494L120.886 102.348L120.252 101.952C112.538 114.328 99.6987 120.503 86.8371 120.506C73.9756 120.503 61.1361 114.328 53.4221 101.952L52.7899 102.348L53.5214 102.494C55.593 92.0108 62.4683 83.1117 72.0884 78.4712L71.7652 77.7993L71.2639 78.3514C75.6814 82.3577 81.2624 84.3624 86.8387 84.3624C92.415 84.3624 97.9944 82.3577 102.412 78.3514L101.911 77.7993ZM101.409 77.2457C97.2739 80.9949 92.0587 82.8672 86.8387 82.8687C81.6187 82.8672 76.4035 80.9949 72.2666 77.2457L71.893 76.9081L71.4405 77.1258C61.3979 81.9713 54.2198 91.26 52.0567 102.203L52 102.494L52.1561 102.744C60.1508 115.576 73.5058 122.003 86.8371 122C100.17 122.003 113.525 115.576 121.52 102.744L121.676 102.494L121.619 102.203C119.458 91.26 112.278 81.9713 102.235 77.1258L101.781 76.9081L101.409 77.2457ZM86.837 42C76.2615 42 67.6914 50.5758 67.6914 61.1547C67.6914 71.7353 76.2615 80.3111 86.837 80.3111C97.4126 80.3111 105.984 71.7353 105.984 61.1547C105.984 50.5758 97.4126 42 86.837 42ZM86.837 43.6026C96.5123 43.6026 104.384 51.478 104.384 61.1547C104.384 70.8346 96.5123 78.7117 86.837 78.7117C77.1633 78.7117 69.29 70.8346 69.29 61.1547C69.29 51.478 77.1633 43.6026 86.837 43.6026Z" stroke="#10CFC9" stroke-width="2"/>
</svg>
