<svg width="560" height="616" viewBox="0 0 560 616" fill="none" xmlns="http://www.w3.org/2000/svg">
<g opacity="0.7" clip-path="url(#clip0_54973_133445)">
<path opacity="0.5" d="M3.54282 485.653C3.64684 485.658 3.75108 485.658 3.8551 485.653L25.6951 523.468C25.4122 523.87 25.216 524.327 25.1191 524.809C25.0222 525.291 25.0268 525.788 25.1325 526.268C25.2382 526.749 25.4428 527.202 25.7331 527.598C26.0234 527.995 26.3931 528.327 26.8188 528.573C27.2444 528.82 27.7167 528.974 28.2055 529.028C28.6943 529.082 29.1889 529.033 29.6578 528.885C30.1268 528.737 30.5597 528.493 30.9293 528.169C31.2988 527.845 31.5967 527.447 31.8041 527.001H75.5915C75.9004 527.777 76.4736 528.419 77.2099 528.813C77.9462 529.208 78.7983 529.329 79.6155 529.157C80.4327 528.984 81.1626 528.528 81.6762 527.869C82.1899 527.21 82.4542 526.391 82.4226 525.557C82.422 524.816 82.1862 524.095 81.7493 523.497L103.628 485.585C103.745 485.585 103.843 485.585 103.96 485.585C104.869 485.537 105.724 485.143 106.351 484.483C106.977 483.823 107.326 482.947 107.326 482.038C107.326 481.128 106.977 480.252 106.351 479.592C105.724 478.932 104.869 478.538 103.96 478.49H103.697L81.7883 440.539C82.0711 440.138 82.2677 439.683 82.3657 439.203C82.4636 438.722 82.4607 438.227 82.3572 437.747C82.2536 437.268 82.0517 436.815 81.7642 436.418C81.4767 436.021 81.1098 435.688 80.6868 435.44C80.2639 435.192 79.794 435.034 79.307 434.977C78.8199 434.92 78.3264 434.964 77.8575 435.108C77.3886 435.252 76.9547 435.491 76.5831 435.811C76.2115 436.131 75.9104 436.524 75.6988 436.967H31.8041C31.5997 436.517 31.3035 436.115 30.9345 435.787C30.5655 435.459 30.132 435.211 29.6616 435.06C29.1913 434.909 28.6946 434.858 28.2035 434.911C27.7123 434.963 27.2376 435.118 26.8097 435.364C26.3818 435.611 26.0103 435.945 25.7189 436.343C25.4275 436.742 25.2228 437.198 25.1179 437.68C25.0129 438.163 25.01 438.662 25.1095 439.146C25.2089 439.63 25.4084 440.088 25.6951 440.49L3.72823 478.549H3.54282C2.63419 478.596 1.77851 478.991 1.15221 479.651C0.525917 480.311 0.176758 481.186 0.176758 482.096C0.176758 483.006 0.525917 483.881 1.15221 484.541C1.77851 485.201 2.63419 485.596 3.54282 485.643V485.653ZM28.6032 442.051C29.2766 442.05 29.9356 441.857 30.5027 441.494C31.0698 441.131 31.5214 440.613 31.8041 440.002H75.5915C75.8677 440.628 76.32 441.161 76.8935 441.536C77.467 441.91 78.1369 442.109 78.8216 442.11H79.1437L101.033 480.013C100.603 480.602 100.368 481.31 100.359 482.04C100.35 482.769 100.569 483.483 100.984 484.082L79.0754 522.034H78.8216C78.1639 522.033 77.5189 522.214 76.9587 522.559C76.3985 522.904 75.9454 523.398 75.6501 523.985H31.8041C31.519 523.377 31.0666 522.862 30.4999 522.501C29.9331 522.14 29.2753 521.947 28.6032 521.946C28.5024 521.941 28.4015 521.941 28.3007 521.946L6.46066 484.111C6.88647 483.504 7.10838 482.776 7.09435 482.035C7.08032 481.293 6.83111 480.574 6.38264 479.983L28.3007 442.012C28.4008 442.03 28.5018 442.043 28.6032 442.051Z" fill="#10CFC9"/>
<path opacity="0.3" d="M3.54242 311.713C3.64645 311.718 3.75068 311.718 3.85471 311.713L25.6947 349.538C25.4118 349.94 25.2156 350.397 25.1187 350.879C25.0219 351.361 25.0264 351.858 25.1321 352.338C25.2378 352.818 25.4424 353.271 25.7327 353.668C26.023 354.065 26.3927 354.397 26.8184 354.643C27.2441 354.889 27.7163 355.044 28.2051 355.098C28.6939 355.152 29.1885 355.103 29.6574 354.955C30.1264 354.807 30.5593 354.563 30.9289 354.239C31.2984 353.914 31.5963 353.516 31.8037 353.071H75.5911C75.7927 353.524 76.0873 353.93 76.4557 354.262C76.8241 354.594 77.2581 354.845 77.7296 354.999C78.2012 355.152 78.6998 355.205 79.1932 355.154C79.6865 355.103 80.1636 354.949 80.5936 354.701C81.0236 354.454 81.3968 354.119 81.6892 353.719C81.9816 353.318 82.1865 352.86 82.2908 352.376C82.3951 351.891 82.3965 351.389 82.2947 350.904C82.1929 350.418 81.9903 349.96 81.7001 349.557L103.579 311.596C103.696 311.596 103.794 311.596 103.911 311.596C104.85 311.596 105.751 311.223 106.416 310.559C107.08 309.894 107.453 308.993 107.453 308.054C107.453 307.114 107.08 306.213 106.416 305.549C105.751 304.884 104.85 304.511 103.911 304.511H103.647L81.7391 266.56C82.1542 265.972 82.376 265.269 82.3734 264.549C82.3742 263.748 82.1035 262.971 81.6057 262.344C81.1079 261.717 80.4123 261.277 79.6323 261.095C78.8523 260.914 78.0339 261.003 77.3106 261.346C76.5873 261.69 76.0019 262.269 75.6497 262.988H31.8037C31.5963 262.542 31.2984 262.144 30.9289 261.82C30.5593 261.495 30.1264 261.251 29.6574 261.104C29.1885 260.956 28.6939 260.907 28.2051 260.961C27.7163 261.014 27.2441 261.169 26.8184 261.415C26.3927 261.661 26.023 261.994 25.7327 262.39C25.4424 262.787 25.2378 263.24 25.1321 263.72C25.0264 264.201 25.0219 264.698 25.1187 265.18C25.2156 265.662 25.4118 266.118 25.6947 266.521L3.72784 304.58H3.54242C2.60291 304.58 1.70191 304.953 1.03758 305.617C0.373247 306.281 0 307.182 0 308.122C0 309.061 0.373247 309.962 1.03758 310.627C1.70191 311.291 2.60291 311.664 3.54242 311.664V311.713ZM28.6028 268.111C29.2749 268.11 29.9327 267.917 30.4995 267.556C31.0662 267.195 31.5186 266.68 31.8037 266.072H75.5911C75.8677 266.697 76.3204 267.229 76.894 267.601C77.4676 267.974 78.1373 268.171 78.8212 268.17H79.1433L101.032 306.082C100.596 306.681 100.361 307.401 100.359 308.141C100.361 308.859 100.578 309.559 100.983 310.152L79.075 348.103C78.9905 348.099 78.9058 348.099 78.8212 348.103C78.1638 348.103 77.5192 348.286 76.9592 348.63C76.3992 348.975 75.9459 349.468 75.6497 350.055H31.8037C31.521 349.444 31.0694 348.926 30.5023 348.563C29.9352 348.2 29.2762 348.007 28.6028 348.006C28.5021 348.001 28.4011 348.001 28.3003 348.006L6.46027 310.181C6.87384 309.589 7.09531 308.883 7.09461 308.161C7.09041 307.397 6.84068 306.655 6.38224 306.043L28.3003 268.072C28.4004 268.09 28.5014 268.103 28.6028 268.111Z" fill="#10CFC9"/>
<path opacity="0.1" d="M455.478 50.6968C455.586 50.6968 455.683 50.6968 455.791 50.6968L477.631 88.5216C477.21 89.1108 476.984 89.8174 476.987 90.5416C476.98 91.3501 477.251 92.1363 477.754 92.7692C478.257 93.4021 478.962 93.8433 479.751 94.0192C480.54 94.195 481.365 94.0949 482.09 93.7355C482.814 93.3762 483.393 92.7793 483.73 92.0445H527.517C527.716 92.5009 528.009 92.9103 528.377 93.246C528.745 93.5816 529.179 93.8359 529.652 93.9923C530.125 94.1488 530.625 94.2038 531.12 94.1538C531.616 94.1038 532.095 93.9499 532.527 93.7022C532.959 93.4545 533.334 93.1185 533.627 92.7162C533.921 92.3138 534.126 91.8542 534.229 91.3672C534.333 90.8802 534.333 90.3768 534.229 89.8898C534.125 89.4029 533.92 88.9433 533.626 88.5411L555.515 50.6382C555.622 50.6382 555.73 50.6382 555.837 50.6382C556.319 50.6635 556.8 50.5904 557.253 50.4236C557.705 50.2567 558.119 49.9995 558.468 49.6676C558.818 49.3358 559.097 48.9362 559.287 48.4932C559.477 48.0502 559.575 47.5731 559.575 47.0909C559.575 46.6088 559.477 46.1317 559.287 45.6887C559.097 45.2457 558.818 44.8461 558.468 44.5142C558.119 44.1823 557.705 43.9251 557.253 43.7582C556.8 43.5914 556.319 43.5184 555.837 43.5436C555.753 43.5388 555.668 43.5388 555.583 43.5436L533.675 5.59193C533.958 5.19137 534.155 4.73645 534.252 4.25597C534.35 3.77548 534.347 3.2799 534.244 2.80059C534.14 2.32129 533.938 1.8687 533.651 1.47148C533.363 1.07425 532.997 0.74105 532.574 0.492961C532.151 0.244871 531.681 0.0872992 531.194 0.0302194C530.707 -0.0268604 530.213 0.0177963 529.744 0.161361C529.275 0.304926 528.841 0.544267 528.47 0.864244C528.098 1.18422 527.797 1.57786 527.586 2.02023H483.73C483.393 1.28545 482.814 0.688552 482.09 0.329171C481.365 -0.0302101 480.54 -0.130328 479.751 0.0455344C478.962 0.221396 478.257 0.662596 477.754 1.29548C477.251 1.92837 476.98 2.71465 476.987 3.52308C476.984 4.25032 477.209 4.9601 477.631 5.5529L455.664 43.6119H455.478C454.57 43.6596 453.714 44.0541 453.088 44.7141C452.462 45.3742 452.112 46.2493 452.112 47.1592C452.112 48.0691 452.462 48.9443 453.088 49.6043C453.714 50.2643 454.57 50.6588 455.478 50.7065V50.6968ZM480.529 7.12405C481.201 7.12391 481.86 6.93192 482.427 6.57064C482.994 6.20936 483.446 5.69379 483.73 5.08448H527.517C527.799 5.70856 528.254 6.23834 528.828 6.61044C529.403 6.98254 530.073 7.18119 530.757 7.1826C530.865 7.1826 530.962 7.1826 531.069 7.1826L552.958 45.0953C552.524 45.6938 552.292 46.415 552.295 47.1543C552.305 47.8524 552.522 48.5318 552.919 49.1061L531.011 87.0675C530.926 87.0627 530.842 87.0627 530.757 87.0675C530.1 87.0663 529.454 87.2483 528.894 87.593C528.334 87.9377 527.881 88.4316 527.586 89.0193H483.73C483.448 88.4074 482.997 87.8892 482.43 87.5259C481.862 87.1627 481.203 86.9698 480.529 86.9699C480.431 86.9699 480.334 86.9699 480.236 86.9699L458.396 49.1354C458.804 48.5443 459.022 47.8431 459.021 47.1251C459.022 46.3601 458.772 45.616 458.308 45.0074L480.236 7.03623C480.324 7.12405 480.431 7.12405 480.529 7.12405Z" fill="#10CFC9"/>
<path opacity="0.6" d="M154.178 572.574C154.286 572.574 154.383 572.574 154.49 572.574L176.33 610.399C175.908 610.991 175.683 611.702 175.686 612.429C175.69 613.232 175.966 614.01 176.47 614.636C176.973 615.261 177.674 615.697 178.458 615.872C179.242 616.047 180.062 615.95 180.784 615.597C181.505 615.245 182.086 614.658 182.43 613.932H226.227C226.425 614.39 226.718 614.801 227.086 615.138C227.455 615.476 227.89 615.731 228.364 615.888C228.838 616.045 229.34 616.1 229.836 616.05C230.333 615.999 230.814 615.844 231.246 615.595C231.679 615.346 232.054 615.008 232.347 614.604C232.64 614.199 232.844 613.738 232.946 613.249C233.048 612.76 233.045 612.255 232.938 611.768C232.832 611.28 232.623 610.82 232.326 610.419L254.215 572.516H254.537C255.018 572.541 255.5 572.468 255.952 572.301C256.405 572.134 256.818 571.877 257.168 571.545C257.518 571.213 257.796 570.814 257.987 570.371C258.177 569.928 258.275 569.451 258.275 568.969C258.275 568.486 258.177 568.009 257.987 567.566C257.796 567.123 257.518 566.724 257.168 566.392C256.818 566.06 256.405 565.803 255.952 565.636C255.5 565.469 255.018 565.396 254.537 565.421C254.452 565.416 254.368 565.416 254.283 565.421L232.375 527.47C232.658 527.069 232.854 526.614 232.952 526.134C233.05 525.653 233.047 525.158 232.944 524.678C232.84 524.199 232.638 523.746 232.351 523.349C232.063 522.952 231.696 522.619 231.273 522.371C230.85 522.123 230.381 521.965 229.894 521.908C229.406 521.851 228.913 521.895 228.444 522.039C227.975 522.183 227.541 522.422 227.17 522.742C226.798 523.062 226.497 523.456 226.285 523.898H182.43C182.086 523.172 181.505 522.585 180.784 522.233C180.062 521.88 179.242 521.783 178.458 521.958C177.674 522.133 176.973 522.568 176.47 523.194C175.966 523.82 175.69 524.598 175.686 525.401C175.684 526.128 175.909 526.838 176.33 527.431L154.364 565.49H154.178C153.239 565.49 152.338 565.863 151.673 566.527C151.009 567.191 150.636 568.092 150.636 569.032C150.636 569.972 151.009 570.873 151.673 571.537C152.338 572.201 153.239 572.574 154.178 572.574ZM179.229 528.972C179.901 528.972 180.559 528.78 181.126 528.419C181.693 528.058 182.146 527.542 182.43 526.933H226.217C226.496 527.558 226.951 528.09 227.526 528.462C228.101 528.834 228.772 529.032 229.457 529.031C229.564 529.031 229.662 529.031 229.769 529.031L251.658 566.944C251.239 567.539 251.013 568.25 251.013 568.978C251.013 569.707 251.239 570.418 251.658 571.013L229.75 608.965C229.665 608.96 229.581 608.96 229.496 608.965C228.838 608.964 228.193 609.145 227.633 609.49C227.073 609.835 226.62 610.329 226.324 610.916H182.469C182.187 610.305 181.736 609.786 181.168 609.423C180.601 609.06 179.941 608.867 179.268 608.867H178.975L157.135 571.042C157.541 570.447 157.759 569.743 157.76 569.022C157.76 568.258 157.509 567.514 157.047 566.905L178.975 528.933L179.229 528.972Z" fill="#10CFC9"/>
<path opacity="0.4" d="M154.179 398.605C154.286 398.605 154.383 398.605 154.491 398.605L176.331 436.42C175.91 437.013 175.684 437.722 175.687 438.45C175.68 439.258 175.951 440.044 176.454 440.677C176.957 441.31 177.662 441.751 178.451 441.927C179.24 442.103 180.065 442.003 180.79 441.644C181.514 441.284 182.093 440.687 182.43 439.953H226.227C226.431 440.4 226.726 440.801 227.093 441.128C227.461 441.455 227.893 441.702 228.361 441.853C228.829 442.004 229.324 442.055 229.813 442.003C230.303 441.952 230.776 441.798 231.202 441.553C231.629 441.308 232 440.977 232.291 440.58C232.582 440.183 232.787 439.73 232.893 439.25C232.999 438.769 233.003 438.272 232.905 437.79C232.808 437.307 232.611 436.851 232.326 436.449L254.215 398.546H254.537C255.019 398.572 255.5 398.499 255.953 398.332C256.405 398.165 256.819 397.908 257.168 397.576C257.518 397.244 257.797 396.844 257.987 396.401C258.177 395.958 258.276 395.481 258.276 394.999C258.276 394.517 258.177 394.04 257.987 393.597C257.797 393.154 257.518 392.754 257.168 392.422C256.819 392.09 256.405 391.833 255.953 391.666C255.5 391.499 255.019 391.426 254.537 391.452C254.453 391.447 254.368 391.447 254.284 391.452L232.375 353.559C232.741 353.025 232.955 352.402 232.993 351.756C233.031 351.11 232.891 350.466 232.59 349.894C232.289 349.321 231.837 348.842 231.283 348.508C230.729 348.173 230.095 347.996 229.448 347.996C228.79 347.995 228.145 348.177 227.585 348.522C227.024 348.866 226.571 349.36 226.276 349.948H182.42C182.083 349.214 181.505 348.617 180.782 348.258C180.059 347.898 179.234 347.798 178.446 347.972C177.657 348.147 176.953 348.586 176.449 349.217C175.945 349.849 175.673 350.633 175.677 351.441C175.673 352.168 175.899 352.879 176.321 353.471L154.354 391.53H154.169C153.26 391.577 152.404 391.972 151.778 392.632C151.152 393.292 150.803 394.167 150.803 395.077C150.803 395.987 151.152 396.862 151.778 397.522C152.404 398.182 153.26 398.577 154.169 398.624L154.179 398.605ZM179.229 355.003C179.903 355.003 180.562 354.81 181.13 354.447C181.697 354.084 182.148 353.565 182.43 352.954H226.217C226.496 353.58 226.951 354.113 227.526 354.487C228.1 354.861 228.771 355.06 229.457 355.061C229.565 355.061 229.662 355.061 229.77 355.061L251.658 392.974C251.24 393.568 251.015 394.277 251.015 395.004C251.015 395.731 251.24 396.44 251.658 397.034L229.75 434.985H229.496C228.838 434.983 228.193 435.165 227.633 435.509C227.072 435.854 226.619 436.349 226.325 436.937H182.469C182.185 436.328 181.733 435.812 181.166 435.451C180.599 435.09 179.941 434.898 179.268 434.897H178.975L157.135 397.063C157.54 396.471 157.758 395.77 157.76 395.053C157.761 394.288 157.511 393.544 157.048 392.935L178.975 354.964L179.229 355.003Z" fill="#10CFC9"/>
<path opacity="0.3" d="M154.178 311.713C154.286 311.713 154.383 311.713 154.49 311.713L176.33 349.538C175.908 350.13 175.683 350.84 175.686 351.568C175.69 352.371 175.966 353.149 176.47 353.774C176.973 354.4 177.674 354.836 178.458 355.011C179.242 355.185 180.062 355.088 180.784 354.736C181.505 354.383 182.086 353.796 182.43 353.071H226.227C226.425 353.529 226.718 353.94 227.086 354.277C227.455 354.614 227.89 354.87 228.364 355.027C228.838 355.184 229.34 355.239 229.836 355.188C230.333 355.138 230.814 354.983 231.246 354.734C231.679 354.484 232.054 354.147 232.347 353.742C232.64 353.338 232.844 352.876 232.946 352.387C233.048 351.899 233.045 351.394 232.938 350.906C232.832 350.418 232.623 349.959 232.326 349.557L254.215 311.596H254.537C255.476 311.596 256.377 311.223 257.042 310.558C257.706 309.894 258.079 308.993 258.079 308.054C258.079 307.114 257.706 306.213 257.042 305.549C256.377 304.884 255.476 304.511 254.537 304.511H254.283L232.375 266.559C232.658 266.159 232.854 265.704 232.952 265.224C233.05 264.743 233.047 264.247 232.944 263.768C232.84 263.289 232.638 262.836 232.351 262.439C232.063 262.042 231.696 261.709 231.273 261.46C230.85 261.212 230.381 261.055 229.894 260.998C229.406 260.941 228.913 260.985 228.444 261.129C227.975 261.272 227.541 261.512 227.17 261.832C226.798 262.152 226.497 262.545 226.285 262.988H182.43C182.086 262.262 181.505 261.675 180.784 261.322C180.062 260.97 179.242 260.873 178.458 261.048C177.674 261.222 176.973 261.658 176.47 262.284C175.966 262.909 175.69 263.688 175.686 264.491C175.684 265.218 175.909 265.928 176.33 266.52L154.364 304.579H154.178C153.239 304.579 152.338 304.953 151.673 305.617C151.009 306.281 150.636 307.182 150.636 308.122C150.636 309.061 151.009 309.962 151.673 310.627C152.338 311.291 153.239 311.664 154.178 311.664V311.713ZM179.229 268.111C179.901 268.111 180.559 267.919 181.126 267.558C181.693 267.196 182.146 266.681 182.43 266.072H226.217C226.496 266.697 226.951 267.228 227.526 267.601C228.101 267.973 228.772 268.171 229.457 268.17C229.564 268.17 229.662 268.17 229.769 268.17L251.658 306.082C251.239 306.678 251.013 307.388 251.013 308.117C251.013 308.845 251.239 309.556 251.658 310.152L229.75 348.103C229.665 348.099 229.581 348.099 229.496 348.103C228.838 348.102 228.193 348.284 227.633 348.629C227.073 348.974 226.62 349.467 226.324 350.055H182.469C182.187 349.443 181.736 348.925 181.168 348.562C180.601 348.199 179.941 348.006 179.268 348.006H178.975L157.135 310.181C157.541 309.586 157.759 308.882 157.76 308.161C157.76 307.396 157.509 306.652 157.047 306.043L178.975 268.072L179.229 268.111Z" fill="#10CFC9"/>
<path opacity="0.2" d="M154.179 224.637C154.286 224.637 154.383 224.637 154.491 224.637L176.331 262.462C175.908 263.054 175.683 263.764 175.687 264.492C175.69 265.295 175.966 266.073 176.47 266.698C176.974 267.324 177.675 267.76 178.459 267.934C179.242 268.109 180.062 268.012 180.784 267.66C181.506 267.307 182.086 266.72 182.43 265.994H226.227C226.431 266.442 226.726 266.843 227.093 267.17C227.461 267.497 227.893 267.744 228.361 267.895C228.829 268.045 229.324 268.097 229.813 268.045C230.303 267.993 230.776 267.84 231.203 267.595C231.629 267.35 232 267.019 232.291 266.622C232.582 266.225 232.787 265.772 232.893 265.292C232.999 264.811 233.003 264.314 232.906 263.831C232.808 263.349 232.611 262.893 232.326 262.491L254.215 224.578H254.537C255.477 224.578 256.378 224.205 257.042 223.541C257.706 222.876 258.08 221.975 258.08 221.036C258.08 220.096 257.706 219.195 257.042 218.531C256.378 217.867 255.477 217.494 254.537 217.494H254.284L232.375 179.552C232.781 178.956 232.999 178.252 233 177.532C233.006 176.729 232.738 175.949 232.242 175.319C231.745 174.689 231.049 174.247 230.267 174.065C229.486 173.883 228.666 173.973 227.942 174.319C227.219 174.665 226.635 175.248 226.286 175.97H182.43C182.086 175.244 181.506 174.657 180.784 174.305C180.062 173.952 179.242 173.855 178.459 174.03C177.675 174.205 176.974 174.641 176.47 175.266C175.966 175.892 175.69 176.67 175.687 177.473C175.684 178.2 175.91 178.91 176.331 179.503L154.364 217.562H154.179C153.27 217.61 152.414 218.004 151.788 218.664C151.162 219.324 150.812 220.199 150.812 221.109C150.812 222.019 151.162 222.894 151.788 223.554C152.414 224.214 153.27 224.609 154.179 224.656V224.637ZM179.229 181.035C179.902 181.033 180.561 180.839 181.128 180.476C181.695 180.113 182.146 179.596 182.43 178.986H226.217C226.496 179.612 226.951 180.145 227.526 180.519C228.101 180.893 228.772 181.092 229.457 181.093C229.565 181.093 229.662 181.093 229.77 181.093L251.659 219.006C251.239 219.602 251.014 220.312 251.014 221.041C251.014 221.769 251.239 222.48 251.659 223.076L229.75 261.027C229.666 261.022 229.581 261.022 229.496 261.027C228.839 261.026 228.194 261.208 227.634 261.553C227.073 261.897 226.62 262.391 226.325 262.979H182.469C182.187 262.367 181.736 261.849 181.169 261.486C180.601 261.122 179.942 260.929 179.268 260.93H178.976L157.135 223.105C157.542 222.509 157.759 221.806 157.76 221.085C157.762 220.323 157.511 219.582 157.048 218.977L178.976 180.996C179.034 181.006 179.132 181.035 179.229 181.035Z" fill="#10CFC9"/>
<path opacity="0.1" d="M154.179 137.636C154.286 137.636 154.383 137.636 154.491 137.636L176.331 175.451C175.91 176.044 175.684 176.754 175.687 177.481C175.68 178.289 175.951 179.076 176.454 179.709C176.957 180.342 177.662 180.783 178.451 180.959C179.24 181.134 180.065 181.034 180.79 180.675C181.514 180.316 182.093 179.719 182.43 178.984H226.227C226.431 179.432 226.726 179.832 227.093 180.159C227.461 180.487 227.893 180.734 228.361 180.884C228.829 181.035 229.324 181.086 229.813 181.035C230.303 180.983 230.776 180.83 231.202 180.585C231.629 180.34 232 180.008 232.291 179.611C232.582 179.215 232.787 178.762 232.893 178.281C232.999 177.801 233.003 177.303 232.905 176.821C232.808 176.339 232.611 175.882 232.326 175.48L254.215 137.578C254.323 137.578 254.43 137.578 254.537 137.578C255.019 137.603 255.5 137.53 255.953 137.363C256.405 137.196 256.819 136.939 257.168 136.607C257.518 136.275 257.797 135.876 257.987 135.433C258.177 134.99 258.276 134.512 258.276 134.03C258.276 133.548 258.177 133.071 257.987 132.628C257.797 132.185 257.518 131.785 257.168 131.454C256.819 131.122 256.405 130.865 255.953 130.698C255.5 130.531 255.019 130.458 254.537 130.483C254.453 130.478 254.368 130.478 254.284 130.483L232.375 92.5314C232.741 91.998 232.955 91.3747 232.993 90.7289C233.031 90.083 232.891 89.4391 232.59 88.8666C232.289 88.2941 231.837 87.8148 231.283 87.4804C230.729 87.1459 230.095 86.9691 229.448 86.9689C228.79 86.9677 228.145 87.1496 227.585 87.4944C227.024 87.8391 226.571 88.3329 226.276 88.9206H182.42C182.083 88.1858 181.504 87.5889 180.78 87.2296C180.056 86.8702 179.23 86.7701 178.441 86.9459C177.652 87.1218 176.947 87.563 176.444 88.1959C175.941 88.8288 175.67 89.615 175.677 90.4235C175.675 91.1477 175.9 91.8543 176.321 92.4435L154.354 130.503H154.169C153.26 130.55 152.404 130.945 151.778 131.605C151.152 132.265 150.803 133.14 150.803 134.05C150.803 134.96 151.152 135.835 151.778 136.495C152.404 137.155 153.26 137.549 154.169 137.597L154.179 137.636ZM179.229 94.0342C179.903 94.0344 180.562 93.8414 181.13 93.4782C181.697 93.115 182.148 92.5967 182.43 91.9849H226.217C226.496 92.6115 226.951 93.144 227.526 93.5181C228.1 93.8921 228.771 94.0917 229.457 94.0927C229.565 94.0927 229.662 94.0927 229.77 94.0927L251.658 132.005C251.24 132.599 251.015 133.308 251.015 134.035C251.015 134.762 251.24 135.471 251.658 136.065L229.711 173.997C229.626 173.992 229.542 173.992 229.457 173.997C228.799 173.995 228.154 174.176 227.593 174.521C227.033 174.866 226.58 175.361 226.286 175.949H182.43C182.146 175.34 181.694 174.824 181.127 174.463C180.56 174.101 179.902 173.91 179.229 173.909H178.936L157.096 136.075C157.501 135.482 157.719 134.782 157.721 134.064C157.722 133.3 157.472 132.555 157.009 131.947L178.936 93.9756L179.229 94.0342Z" fill="#10CFC9"/>
<path opacity="0.4" d="M78.8701 355.139C78.9774 355.139 79.075 355.139 79.1824 355.139L101.013 392.964C100.726 393.366 100.526 393.824 100.427 394.307C100.328 394.791 100.33 395.291 100.435 395.773C100.54 396.256 100.745 396.711 101.036 397.11C101.328 397.509 101.699 397.842 102.127 398.089C102.555 398.336 103.03 398.49 103.521 398.543C104.012 398.595 104.509 398.544 104.979 398.394C105.449 398.243 105.883 397.995 106.252 397.667C106.621 397.338 106.917 396.936 107.122 396.487H150.909C151.108 396.943 151.401 397.353 151.769 397.688C152.136 398.024 152.571 398.278 153.044 398.435C153.516 398.591 154.017 398.646 154.512 398.596C155.007 398.546 155.487 398.392 155.919 398.144C156.351 397.897 156.726 397.561 157.019 397.158C157.312 396.756 157.517 396.296 157.621 395.809C157.725 395.322 157.725 394.819 157.621 394.332C157.517 393.845 157.312 393.386 157.018 392.983L178.907 355.08C179.014 355.08 179.112 355.08 179.229 355.08C180.137 355.033 180.993 354.638 181.619 353.978C182.246 353.318 182.595 352.443 182.595 351.533C182.595 350.623 182.246 349.748 181.619 349.088C180.993 348.428 180.137 348.034 179.229 347.986H178.965L157.057 310.034C157.472 309.446 157.694 308.744 157.691 308.024C157.697 307.222 157.43 306.441 156.933 305.811C156.437 305.181 155.74 304.739 154.959 304.557C154.178 304.376 153.358 304.465 152.634 304.811C151.91 305.158 151.326 305.74 150.977 306.462H107.122C106.914 306.017 106.616 305.619 106.247 305.294C105.877 304.97 105.444 304.726 104.975 304.578C104.506 304.43 104.012 304.382 103.523 304.435C103.034 304.489 102.562 304.644 102.136 304.89C101.711 305.136 101.341 305.468 101.051 305.865C100.76 306.262 100.556 306.715 100.45 307.195C100.344 307.675 100.34 308.172 100.437 308.654C100.534 309.136 100.73 309.593 101.013 309.995L79.0457 348.054H78.8701C78.3886 348.029 77.907 348.102 77.4547 348.269C77.0023 348.436 76.5887 348.693 76.2389 349.025C75.8892 349.357 75.6106 349.756 75.4203 350.199C75.23 350.642 75.1318 351.119 75.1318 351.601C75.1318 352.084 75.23 352.561 75.4203 353.004C75.6106 353.447 75.8892 353.846 76.2389 354.178C76.5887 354.51 77.0023 354.767 77.4547 354.934C77.907 355.101 78.3886 355.174 78.8701 355.149V355.139ZM103.921 311.537C104.593 311.536 105.251 311.343 105.817 310.982C106.384 310.621 106.837 310.106 107.122 309.497H150.909C151.187 310.122 151.64 310.653 152.213 311.025C152.786 311.398 153.455 311.596 154.139 311.596H154.461L176.35 349.508C175.925 350.101 175.696 350.813 175.696 351.543C175.696 352.273 175.925 352.984 176.35 353.578L154.383 391.5C154.299 391.495 154.214 391.495 154.129 391.5C153.473 391.498 152.829 391.68 152.27 392.025C151.712 392.37 151.26 392.864 150.968 393.452H107.122C106.839 392.841 106.387 392.323 105.82 391.96C105.253 391.597 104.594 391.403 103.921 391.402C103.813 391.402 103.726 391.402 103.618 391.402L81.7782 353.607C82.1933 353.019 82.415 352.316 82.4125 351.597C82.4097 350.832 82.1598 350.089 81.7002 349.479L103.638 311.508C103.726 311.517 103.813 311.537 103.921 311.537Z" fill="#10CFC9"/>
<path opacity="0.1" d="M78.8696 94.1722C78.9769 94.1722 79.0745 94.1722 79.1819 94.1722L101.012 131.997C100.725 132.399 100.526 132.857 100.426 133.341C100.327 133.825 100.33 134.324 100.435 134.806C100.54 135.289 100.745 135.744 101.036 136.143C101.327 136.542 101.699 136.876 102.127 137.122C102.555 137.369 103.029 137.524 103.52 137.576C104.012 137.629 104.508 137.578 104.979 137.427C105.449 137.276 105.883 137.028 106.251 136.7C106.62 136.371 106.917 135.97 107.121 135.52H150.908C151.102 135.982 151.392 136.399 151.759 136.741C152.125 137.083 152.56 137.343 153.035 137.505C153.51 137.666 154.013 137.725 154.513 137.678C155.012 137.63 155.495 137.477 155.931 137.228C156.366 136.98 156.744 136.642 157.039 136.236C157.335 135.831 157.54 135.368 157.643 134.877C157.746 134.386 157.743 133.879 157.635 133.389C157.527 132.9 157.317 132.438 157.017 132.036L178.906 94.1332C179.014 94.1332 179.111 94.1332 179.228 94.1332C180.137 94.0855 180.993 93.691 181.619 93.0309C182.245 92.3709 182.594 91.4957 182.594 90.5859C182.594 89.676 182.245 88.8008 181.619 88.1408C180.993 87.4808 180.137 87.0862 179.228 87.0386H178.965L157.056 49.0869C157.472 48.4989 157.693 47.7963 157.691 47.0766C157.697 46.2744 157.429 45.4941 156.933 44.864C156.436 44.234 155.74 43.7917 154.958 43.61C154.177 43.4283 153.357 43.5179 152.633 43.8642C151.91 44.2104 151.326 44.7927 150.977 45.5152H107.121C106.914 45.0693 106.616 44.6716 106.246 44.3471C105.877 44.0227 105.444 43.7788 104.975 43.6309C104.506 43.483 104.011 43.4343 103.523 43.488C103.034 43.5416 102.561 43.6965 102.136 43.9426C101.71 44.1888 101.34 44.5208 101.05 44.9177C100.76 45.3146 100.555 45.7675 100.45 46.2477C100.344 46.728 100.339 47.2249 100.436 47.707C100.533 48.1891 100.729 48.6457 101.012 49.0479L79.0452 87.1459H78.8696C78.4044 87.1459 77.9437 87.2375 77.5139 87.4156C77.0841 87.5936 76.6937 87.8545 76.3647 88.1835C76.0358 88.5124 75.7748 88.9029 75.5968 89.3327C75.4188 89.7625 75.3271 90.2231 75.3271 90.6883C75.3271 91.1535 75.4188 91.6142 75.5968 92.0439C75.7748 92.4737 76.0358 92.8643 76.3647 93.1932C76.6937 93.5221 77.0841 93.7831 77.5139 93.9611C77.9437 94.1391 78.4044 94.2307 78.8696 94.2307V94.1722ZM103.92 50.5702C104.592 50.5689 105.25 50.3764 105.817 50.0153C106.384 49.6541 106.836 49.1392 107.121 48.5306H150.908C151.186 49.1554 151.639 49.6862 152.212 50.0586C152.786 50.4311 153.455 50.6291 154.139 50.6288H154.461L176.349 88.5414C175.924 89.1347 175.696 89.8462 175.696 90.5761C175.696 91.306 175.924 92.0175 176.349 92.6108L154.383 130.533C154.298 130.528 154.213 130.528 154.129 130.533C153.472 130.532 152.828 130.713 152.27 131.058C151.711 131.403 151.26 131.897 150.967 132.485H107.121C106.838 131.874 106.387 131.356 105.82 130.993C105.253 130.63 104.594 130.437 103.92 130.436C103.813 130.436 103.725 130.436 103.618 130.436L81.7777 92.6401C82.1928 92.0521 82.4145 91.3495 82.412 90.6298C82.4092 89.8655 82.1593 89.1227 81.6996 88.5121L103.637 50.5409C103.725 50.5507 103.813 50.5702 103.92 50.5702Z" fill="#10CFC9"/>
<path opacity="0.6" d="M304.853 572.575C304.957 572.58 305.061 572.58 305.165 572.575L327.005 610.399C326.722 610.801 326.526 611.258 326.429 611.74C326.332 612.222 326.337 612.719 326.443 613.199C326.548 613.68 326.753 614.133 327.043 614.529C327.333 614.926 327.703 615.258 328.129 615.505C328.555 615.751 329.027 615.906 329.516 615.959C330.004 616.013 330.499 615.964 330.968 615.816C331.437 615.668 331.87 615.424 332.239 615.1C332.609 614.776 332.907 614.378 333.114 613.932H376.882C377.084 614.385 377.378 614.791 377.747 615.123C378.115 615.455 378.549 615.706 379.021 615.86C379.492 616.014 379.991 616.067 380.484 616.015C380.978 615.964 381.455 615.81 381.885 615.563C382.315 615.316 382.688 614.981 382.98 614.58C383.272 614.179 383.477 613.722 383.582 613.237C383.686 612.752 383.687 612.251 383.586 611.765C383.484 611.28 383.281 610.821 382.991 610.419L404.88 572.516C404.987 572.516 405.085 572.516 405.202 572.516C406.111 572.468 406.966 572.074 407.593 571.414C408.219 570.754 408.568 569.879 408.568 568.969C408.568 568.059 408.219 567.184 407.593 566.524C406.966 565.864 406.111 565.469 405.202 565.421H404.938L383.03 527.47C383.445 526.882 383.667 526.179 383.664 525.459C383.665 524.659 383.394 523.881 382.897 523.254C382.399 522.627 381.703 522.187 380.923 522.006C380.143 521.824 379.325 521.913 378.602 522.257C377.878 522.6 377.293 523.179 376.941 523.898H333.095C332.887 523.452 332.589 523.054 332.22 522.73C331.85 522.406 331.417 522.162 330.948 522.014C330.479 521.866 329.985 521.817 329.496 521.871C329.007 521.924 328.535 522.079 328.109 522.325C327.684 522.572 327.314 522.904 327.024 523.301C326.733 523.697 326.529 524.15 326.423 524.631C326.317 525.111 326.313 525.608 326.41 526.09C326.507 526.572 326.703 527.029 326.986 527.431L305.019 565.49H304.833C303.894 565.49 302.993 565.863 302.328 566.527C301.664 567.192 301.291 568.093 301.291 569.032C301.291 569.972 301.664 570.873 302.328 571.537C302.993 572.201 303.894 572.575 304.833 572.575H304.853ZM329.913 528.973C330.585 528.971 331.243 528.779 331.81 528.418C332.377 528.056 332.829 527.542 333.114 526.933H376.882C377.16 527.558 377.613 528.089 378.186 528.461C378.759 528.833 379.429 529.031 380.112 529.031H380.434L402.323 566.944C401.887 567.542 401.652 568.263 401.65 569.003C401.652 569.72 401.869 570.421 402.274 571.013L380.366 608.965C380.281 608.96 380.197 608.96 380.112 608.965C379.456 608.963 378.812 609.145 378.253 609.49C377.694 609.835 377.243 610.329 376.95 610.917H333.095C332.812 610.305 332.36 609.788 331.793 609.425C331.226 609.062 330.567 608.868 329.894 608.867C329.793 608.862 329.692 608.862 329.591 608.867L307.751 571.042C308.165 570.45 308.386 569.745 308.386 569.022C308.381 568.258 308.132 567.516 307.673 566.905L329.591 528.934C329.698 528.952 329.805 528.965 329.913 528.973Z" fill="#10CFC9"/>
<path opacity="0.5" d="M304.852 485.653C304.956 485.658 305.061 485.658 305.165 485.653L327.005 523.468C326.722 523.87 326.526 524.327 326.429 524.809C326.332 525.291 326.336 525.788 326.442 526.268C326.548 526.749 326.752 527.202 327.043 527.598C327.333 527.995 327.703 528.327 328.128 528.573C328.554 528.82 329.026 528.974 329.515 529.028C330.004 529.082 330.498 529.033 330.967 528.885C331.436 528.737 331.869 528.493 332.239 528.169C332.608 527.845 332.906 527.447 333.114 527.001H376.882C377.19 527.777 377.764 528.419 378.5 528.813C379.236 529.208 380.088 529.329 380.906 529.157C381.723 528.984 382.453 528.528 382.966 527.869C383.48 527.21 383.744 526.391 383.713 525.557C383.712 524.816 383.476 524.095 383.039 523.497L404.928 485.585C405.035 485.59 405.143 485.59 405.25 485.585C406.159 485.537 407.015 485.143 407.641 484.483C408.267 483.823 408.616 482.947 408.616 482.038C408.616 481.128 408.267 480.252 407.641 479.592C407.015 478.932 406.159 478.538 405.25 478.49H404.987L383.078 440.539C383.361 440.138 383.558 439.683 383.656 439.203C383.754 438.722 383.751 438.227 383.647 437.747C383.544 437.268 383.342 436.815 383.054 436.418C382.767 436.021 382.4 435.688 381.977 435.44C381.554 435.192 381.084 435.034 380.597 434.977C380.11 434.92 379.616 434.964 379.148 435.108C378.679 435.252 378.245 435.491 377.873 435.811C377.502 436.131 377.2 436.524 376.989 436.967H333.143C332.939 436.517 332.642 436.115 332.273 435.787C331.904 435.459 331.471 435.211 331.001 435.06C330.53 434.909 330.033 434.858 329.542 434.911C329.051 434.963 328.576 435.118 328.149 435.364C327.721 435.611 327.349 435.945 327.058 436.343C326.766 436.742 326.562 437.198 326.457 437.68C326.352 438.163 326.349 438.662 326.448 439.146C326.548 439.63 326.747 440.088 327.034 440.49L305.067 478.549H304.882C303.973 478.596 303.117 478.991 302.491 479.651C301.865 480.311 301.516 481.186 301.516 482.096C301.516 483.006 301.865 483.881 302.491 484.541C303.117 485.201 303.973 485.596 304.882 485.643L304.852 485.653ZM329.913 442.051C330.586 442.05 331.245 441.857 331.812 441.494C332.379 441.131 332.831 440.613 333.114 440.002H376.882C377.159 440.628 377.611 441.16 378.185 441.534C378.758 441.908 379.427 442.108 380.112 442.11H380.434L402.322 480.013C401.9 480.607 401.673 481.318 401.673 482.047C401.673 482.776 401.9 483.488 402.322 484.082L380.414 522.034H380.16C379.504 522.031 378.859 522.212 378.3 522.557C377.742 522.902 377.291 523.397 376.999 523.985H333.143C332.858 523.377 332.405 522.862 331.839 522.501C331.272 522.14 330.614 521.947 329.942 521.946C329.841 521.941 329.74 521.941 329.64 521.946L307.799 484.111C308.225 483.504 308.447 482.776 308.433 482.035C308.419 481.293 308.17 480.574 307.721 479.983L329.64 442.012C329.73 442.029 329.821 442.042 329.913 442.051Z" fill="#10CFC9"/>
<path opacity="0.4" d="M304.852 398.604C304.956 398.61 305.061 398.61 305.165 398.604L327.005 436.419C326.722 436.822 326.526 437.278 326.429 437.76C326.332 438.242 326.336 438.739 326.442 439.22C326.548 439.7 326.752 440.153 327.043 440.55C327.333 440.946 327.703 441.279 328.128 441.525C328.554 441.771 329.026 441.926 329.515 441.979C330.004 442.033 330.498 441.984 330.967 441.836C331.436 441.688 331.869 441.445 332.239 441.12C332.608 440.796 332.906 440.398 333.114 439.952H376.882C377.08 440.409 377.373 440.818 377.741 441.154C378.109 441.489 378.543 441.743 379.016 441.9C379.489 442.056 379.989 442.111 380.485 442.061C380.98 442.011 381.459 441.857 381.891 441.61C382.323 441.362 382.698 441.026 382.991 440.624C383.285 440.221 383.49 439.762 383.594 439.275C383.697 438.788 383.697 438.284 383.593 437.797C383.489 437.31 383.284 436.851 382.991 436.449L404.879 398.546C404.987 398.546 405.084 398.546 405.201 398.546C406.11 398.498 406.966 398.104 407.592 397.444C408.218 396.784 408.567 395.908 408.567 394.998C408.567 394.089 408.218 393.213 407.592 392.553C406.966 391.893 406.11 391.499 405.201 391.451H404.938L383.049 353.558C383.461 352.969 383.683 352.267 383.683 351.548C383.684 350.747 383.413 349.97 382.916 349.342C382.418 348.715 381.722 348.275 380.942 348.094C380.162 347.913 379.344 348.001 378.621 348.345C377.897 348.689 377.312 349.267 376.96 349.986H333.114C332.909 349.537 332.613 349.135 332.244 348.806C331.875 348.478 331.442 348.23 330.971 348.08C330.501 347.929 330.004 347.878 329.513 347.93C329.022 347.983 328.547 348.137 328.119 348.384C327.691 348.631 327.32 348.964 327.028 349.363C326.737 349.762 326.532 350.217 326.427 350.7C326.322 351.182 326.32 351.682 326.419 352.166C326.518 352.649 326.718 353.107 327.005 353.509L305.038 391.568H304.852C303.944 391.616 303.088 392.011 302.462 392.671C301.835 393.331 301.486 394.206 301.486 395.116C301.486 396.025 301.835 396.901 302.462 397.561C303.088 398.221 303.944 398.615 304.852 398.663V398.604ZM329.913 355.002C330.586 355.001 331.245 354.808 331.812 354.445C332.379 354.082 332.831 353.564 333.114 352.953H376.882C377.159 353.579 377.611 354.111 378.185 354.485C378.758 354.859 379.427 355.059 380.112 355.061H380.434L402.322 392.974C401.901 393.566 401.675 394.276 401.675 395.003C401.675 395.731 401.901 396.44 402.322 397.033L380.414 434.985H380.16C379.504 434.982 378.859 435.164 378.3 435.509C377.742 435.854 377.291 436.348 376.999 436.937H333.143C332.858 436.328 332.405 435.813 331.839 435.452C331.272 435.091 330.614 434.898 329.942 434.897C329.841 434.892 329.74 434.892 329.64 434.897L307.799 397.062C308.225 396.455 308.447 395.728 308.433 394.986C308.419 394.244 308.17 393.526 307.721 392.935L329.64 354.963C329.73 354.981 329.821 354.994 329.913 355.002Z" fill="#10CFC9"/>
<path opacity="0.3" d="M304.853 311.713C304.957 311.718 305.061 311.718 305.165 311.713L327.005 349.538C326.722 349.94 326.526 350.397 326.429 350.879C326.332 351.361 326.337 351.858 326.443 352.338C326.548 352.818 326.753 353.271 327.043 353.668C327.333 354.065 327.703 354.397 328.129 354.643C328.555 354.889 329.027 355.044 329.516 355.098C330.004 355.152 330.499 355.103 330.968 354.955C331.437 354.807 331.87 354.563 332.239 354.239C332.609 353.914 332.907 353.516 333.114 353.071H376.882C377.084 353.524 377.378 353.93 377.747 354.262C378.115 354.594 378.549 354.845 379.021 354.999C379.492 355.152 379.991 355.205 380.484 355.154C380.978 355.103 381.455 354.949 381.885 354.701C382.315 354.454 382.688 354.119 382.98 353.719C383.272 353.318 383.477 352.86 383.582 352.376C383.686 351.891 383.687 351.389 383.586 350.904C383.484 350.418 383.281 349.96 382.991 349.557L404.899 311.596C405.007 311.596 405.104 311.596 405.221 311.596C406.161 311.596 407.062 311.223 407.726 310.559C408.391 309.894 408.764 308.993 408.764 308.054C408.764 307.114 408.391 306.213 407.726 305.549C407.062 304.884 406.161 304.511 405.221 304.511H404.958L383.05 266.56C383.465 265.972 383.686 265.269 383.684 264.549C383.685 263.748 383.414 262.971 382.916 262.344C382.418 261.717 381.723 261.277 380.943 261.095C380.163 260.914 379.344 261.003 378.621 261.346C377.898 261.69 377.312 262.269 376.96 262.988H333.114C332.907 262.542 332.609 262.144 332.239 261.82C331.87 261.495 331.437 261.251 330.968 261.104C330.499 260.956 330.004 260.907 329.516 260.961C329.027 261.014 328.555 261.169 328.129 261.415C327.703 261.661 327.333 261.994 327.043 262.39C326.753 262.787 326.548 263.24 326.443 263.72C326.337 264.201 326.332 264.698 326.429 265.18C326.526 265.662 326.722 266.118 327.005 266.521L305.038 304.58H304.853C303.913 304.58 303.012 304.953 302.348 305.617C301.684 306.281 301.311 307.182 301.311 308.122C301.311 309.061 301.684 309.962 302.348 310.627C303.012 311.291 303.913 311.664 304.853 311.664V311.713ZM329.913 268.111C330.585 268.11 331.243 267.917 331.81 267.556C332.377 267.195 332.829 266.68 333.114 266.072H376.882C377.16 266.696 377.613 267.227 378.186 267.6C378.759 267.972 379.429 268.17 380.112 268.17H380.434L402.323 306.082C401.887 306.681 401.652 307.401 401.65 308.141C401.652 308.859 401.869 309.559 402.274 310.152L380.366 348.103C380.281 348.099 380.197 348.099 380.112 348.103C379.456 348.102 378.812 348.284 378.253 348.629C377.694 348.973 377.243 349.468 376.95 350.055H333.095C332.812 349.444 332.36 348.926 331.793 348.563C331.226 348.2 330.567 348.007 329.894 348.006C329.793 348.001 329.692 348.001 329.591 348.006L307.751 310.181C308.165 309.589 308.386 308.883 308.386 308.161C308.381 307.397 308.132 306.655 307.673 306.043L329.591 268.072C329.698 268.091 329.805 268.104 329.913 268.111Z" fill="#10CFC9"/>
<path opacity="0.2" d="M304.852 224.637C304.956 224.642 305.061 224.642 305.165 224.637L327.005 262.462C326.722 262.864 326.526 263.321 326.429 263.803C326.332 264.285 326.336 264.782 326.442 265.262C326.548 265.742 326.752 266.195 327.043 266.592C327.333 266.989 327.703 267.321 328.128 267.567C328.554 267.813 329.026 267.968 329.515 268.022C330.004 268.075 330.498 268.027 330.967 267.879C331.436 267.731 331.869 267.487 332.239 267.163C332.608 266.838 332.906 266.44 333.114 265.994H376.882C377.19 266.771 377.764 267.413 378.5 267.807C379.236 268.201 380.088 268.323 380.906 268.15C381.723 267.977 382.453 267.521 382.966 266.863C383.48 266.204 383.744 265.385 383.713 264.55C383.712 263.81 383.476 263.089 383.039 262.491L404.928 224.578C405.035 224.578 405.133 224.578 405.25 224.578C406.19 224.578 407.091 224.205 407.755 223.541C408.419 222.877 408.793 221.976 408.793 221.036C408.793 220.097 408.419 219.196 407.755 218.531C407.091 217.867 406.19 217.494 405.25 217.494H404.987L383.078 179.552C383.357 179.151 383.549 178.697 383.644 178.219C383.739 177.741 383.734 177.248 383.629 176.771C383.525 176.295 383.323 175.845 383.037 175.45C382.75 175.055 382.386 174.724 381.965 174.477C381.545 174.229 381.078 174.072 380.594 174.013C380.109 173.955 379.618 173.997 379.151 174.137C378.684 174.278 378.251 174.513 377.879 174.828C377.507 175.143 377.204 175.532 376.989 175.97H333.143C332.936 175.524 332.638 175.127 332.268 174.802C331.899 174.478 331.466 174.234 330.997 174.086C330.528 173.938 330.033 173.889 329.544 173.943C329.056 173.997 328.583 174.152 328.158 174.398C327.732 174.644 327.362 174.976 327.072 175.373C326.782 175.77 326.577 176.223 326.471 176.703C326.366 177.183 326.361 177.68 326.458 178.162C326.555 178.644 326.751 179.101 327.034 179.503L305.067 217.562H304.882C303.973 217.61 303.117 218.004 302.491 218.664C301.865 219.324 301.516 220.199 301.516 221.109C301.516 222.019 301.865 222.894 302.491 223.554C303.117 224.214 303.973 224.609 304.882 224.657L304.852 224.637ZM329.913 181.035C330.586 181.032 331.244 180.837 331.81 180.474C332.377 180.112 332.829 179.595 333.114 178.986H376.882C377.159 179.612 377.611 180.144 378.185 180.518C378.758 180.892 379.427 181.092 380.112 181.094C380.219 181.094 380.326 181.094 380.434 181.094L402.322 219.006C401.887 219.605 401.651 220.325 401.649 221.065C401.649 221.783 401.867 222.484 402.274 223.076L380.365 261.027C380.281 261.023 380.196 261.023 380.112 261.027C379.455 261.026 378.811 261.208 378.253 261.552C377.694 261.897 377.243 262.391 376.95 262.979H333.094C332.811 262.368 332.36 261.85 331.793 261.487C331.226 261.124 330.567 260.931 329.893 260.93C329.786 260.93 329.688 260.93 329.591 260.93L307.751 223.105C308.177 222.497 308.398 221.77 308.384 221.028C308.37 220.286 308.121 219.568 307.673 218.977L329.591 180.996C329.697 181.015 329.805 181.028 329.913 181.035Z" fill="#10CFC9"/>
<path opacity="0.1" d="M304.852 137.638C304.956 137.643 305.061 137.643 305.165 137.638L327.005 175.453C326.722 175.855 326.526 176.311 326.429 176.793C326.332 177.275 326.336 177.772 326.442 178.253C326.548 178.733 326.752 179.186 327.043 179.583C327.333 179.98 327.703 180.312 328.128 180.558C328.554 180.804 329.026 180.959 329.515 181.012C330.004 181.066 330.498 181.017 330.967 180.87C331.436 180.722 331.869 180.478 332.239 180.153C332.608 179.829 332.906 179.431 333.114 178.985H376.882C377.08 179.442 377.373 179.851 377.741 180.187C378.109 180.522 378.543 180.777 379.016 180.933C379.489 181.09 379.989 181.145 380.485 181.095C380.98 181.045 381.459 180.891 381.891 180.643C382.323 180.395 382.698 180.059 382.991 179.657C383.285 179.255 383.49 178.795 383.594 178.308C383.697 177.821 383.697 177.318 383.593 176.831C383.489 176.344 383.284 175.884 382.991 175.482L404.879 137.579C404.987 137.579 405.084 137.579 405.201 137.579C406.11 137.531 406.966 137.137 407.592 136.477C408.218 135.817 408.567 134.942 408.567 134.032C408.567 133.122 408.218 132.247 407.592 131.587C406.966 130.927 406.11 130.532 405.201 130.484H404.938L383.03 92.5327C383.442 91.9433 383.663 91.2416 383.664 90.5224C383.665 89.7216 383.394 88.9442 382.896 88.317C382.398 87.6897 381.703 87.2496 380.923 87.0685C380.143 86.8874 379.324 86.9759 378.601 87.3195C377.878 87.6632 377.292 88.2418 376.94 88.961H333.094C332.89 88.5113 332.593 88.1094 332.225 87.781C331.856 87.4526 331.422 87.2051 330.952 87.0541C330.481 86.9032 329.985 86.8524 329.494 86.9048C329.002 86.9572 328.528 87.1117 328.1 87.3585C327.672 87.6052 327.3 87.9387 327.009 88.3376C326.718 88.7364 326.513 89.1918 326.408 89.6745C326.303 90.1571 326.3 90.6564 326.399 91.1402C326.499 91.624 326.698 92.0817 326.985 92.4839L305.018 130.543H304.833C303.924 130.591 303.069 130.985 302.442 131.645C301.816 132.305 301.467 133.18 301.467 134.09C301.467 135 301.816 135.875 302.442 136.535C303.069 137.195 303.924 137.59 304.833 137.638H304.852ZM329.913 94.0355C330.586 94.0345 331.245 93.8411 331.812 93.478C332.379 93.1149 332.831 92.5973 333.114 91.9862H376.882C377.159 92.6121 377.611 93.1442 378.185 93.5183C378.758 93.8924 379.427 94.0924 380.112 94.0941C380.219 94.0941 380.326 94.0941 380.434 94.0941L402.322 132.007C401.901 132.6 401.675 133.309 401.675 134.037C401.675 134.764 401.901 135.473 402.322 136.066L380.385 173.999C380.3 173.994 380.216 173.994 380.131 173.999C379.474 173.996 378.83 174.177 378.271 174.522C377.712 174.867 377.261 175.362 376.969 175.95H333.114C332.829 175.342 332.376 174.827 331.809 174.466C331.243 174.104 330.585 173.912 329.913 173.911C329.812 173.905 329.711 173.905 329.61 173.911L307.77 136.076C308.196 135.468 308.418 134.741 308.404 133.999C308.39 133.258 308.141 132.539 307.692 131.948L329.61 93.977C329.71 94.0018 329.811 94.0213 329.913 94.0355Z" fill="#10CFC9"/>
<path opacity="0.5" d="M229.525 529.117C229.633 529.117 229.73 529.117 229.838 529.117L251.678 566.942C251.256 567.535 251.031 568.245 251.034 568.972C251.037 569.775 251.313 570.553 251.817 571.179C252.32 571.804 253.021 572.24 253.805 572.415C254.589 572.59 255.409 572.493 256.131 572.14C256.852 571.788 257.433 571.201 257.777 570.475H301.564C301.873 571.251 302.446 571.893 303.183 572.287C303.919 572.682 304.771 572.803 305.588 572.631C306.405 572.458 307.135 572.002 307.649 571.343C308.163 570.684 308.427 569.865 308.395 569.031C308.395 568.29 308.159 567.569 307.722 566.972L329.611 529.059C329.718 529.059 329.825 529.059 329.933 529.059C330.414 529.084 330.896 529.011 331.348 528.844C331.801 528.677 332.214 528.42 332.564 528.088C332.914 527.756 333.192 527.357 333.383 526.914C333.573 526.471 333.671 525.994 333.671 525.512C333.671 525.029 333.573 524.552 333.383 524.109C333.192 523.666 332.914 523.267 332.564 522.935C332.214 522.603 331.801 522.346 331.348 522.179C330.896 522.012 330.414 521.939 329.933 521.964H329.679L307.771 484.022C308.177 483.427 308.395 482.723 308.395 482.002C308.401 481.2 308.134 480.42 307.637 479.79C307.141 479.16 306.444 478.717 305.663 478.536C304.882 478.354 304.062 478.444 303.338 478.79C302.614 479.136 302.03 479.718 301.681 480.441H257.826C257.482 479.715 256.901 479.128 256.18 478.775C255.458 478.423 254.638 478.326 253.854 478.501C253.07 478.676 252.369 479.111 251.865 479.737C251.362 480.363 251.086 481.141 251.082 481.944C251.079 482.671 251.304 483.381 251.726 483.974L229.759 522.033H229.574C228.665 522.08 227.81 522.475 227.184 523.135C226.557 523.795 226.208 524.67 226.208 525.58C226.208 526.49 226.557 527.365 227.184 528.025C227.81 528.685 228.665 529.079 229.574 529.127L229.525 529.117ZM254.576 485.515C255.25 485.516 255.909 485.323 256.476 484.959C257.044 484.596 257.495 484.078 257.777 483.466H301.564C301.843 484.093 302.297 484.625 302.872 484.999C303.447 485.373 304.118 485.573 304.804 485.574C304.911 485.574 305.009 485.574 305.116 485.574L327.005 523.487C326.572 524.086 326.34 524.807 326.342 525.546C326.342 526.264 326.56 526.964 326.966 527.556L305.058 565.508H304.804C304.146 565.505 303.501 565.687 302.94 566.032C302.38 566.377 301.927 566.871 301.633 567.459H257.826C257.542 566.849 257.09 566.332 256.523 565.969C255.956 565.606 255.298 565.412 254.625 565.41C254.527 565.41 254.43 565.41 254.332 565.41L232.453 527.585C232.859 526.99 233.077 526.286 233.077 525.565C233.079 524.803 232.829 524.062 232.365 523.457L254.293 485.486L254.576 485.515Z" fill="#10CFC9"/>
<path opacity="0.5" d="M229.525 442.187C229.633 442.187 229.73 442.187 229.838 442.187L251.678 480.012C251.255 480.6 251.03 481.307 251.034 482.032C251.027 482.84 251.298 483.627 251.801 484.259C252.304 484.892 253.009 485.334 253.798 485.509C254.587 485.685 255.412 485.585 256.136 485.226C256.861 484.866 257.44 484.269 257.777 483.535H301.564C301.873 484.311 302.446 484.953 303.183 485.347C303.919 485.742 304.771 485.863 305.588 485.69C306.405 485.518 307.135 485.062 307.649 484.403C308.163 483.744 308.427 482.925 308.395 482.09C308.393 481.35 308.158 480.63 307.722 480.031L329.611 442.128H329.933C330.414 442.154 330.896 442.081 331.348 441.914C331.801 441.747 332.214 441.49 332.564 441.158C332.914 440.826 333.192 440.426 333.383 439.983C333.573 439.54 333.671 439.063 333.671 438.581C333.671 438.099 333.573 437.622 333.383 437.179C333.192 436.736 332.914 436.336 332.564 436.004C332.214 435.673 331.801 435.415 331.348 435.248C330.896 435.082 330.414 435.009 329.933 435.034C329.848 435.029 329.764 435.029 329.679 435.034L307.771 397.082C308.137 396.549 308.35 395.926 308.388 395.28C308.426 394.634 308.287 393.99 307.986 393.417C307.684 392.845 307.232 392.366 306.679 392.031C306.125 391.697 305.49 391.52 304.843 391.52C304.185 391.518 303.54 391.7 302.98 392.045C302.42 392.39 301.967 392.884 301.672 393.471H257.826C257.488 392.737 256.909 392.14 256.185 391.78C255.461 391.421 254.635 391.321 253.846 391.497C253.057 391.673 252.352 392.114 251.849 392.747C251.346 393.38 251.076 394.166 251.082 394.974C251.08 395.698 251.305 396.405 251.726 396.994L229.759 435.053H229.574C228.665 435.101 227.81 435.496 227.184 436.156C226.557 436.816 226.208 437.691 226.208 438.601C226.208 439.511 226.557 440.386 227.184 441.046C227.81 441.706 228.665 442.1 229.574 442.148L229.525 442.187ZM254.576 398.585C255.262 398.591 255.935 398.397 256.512 398.026C257.09 397.655 257.546 397.123 257.826 396.497H301.613C301.892 397.123 302.346 397.656 302.921 398.03C303.496 398.404 304.167 398.603 304.853 398.605C304.96 398.605 305.058 398.605 305.165 398.605L327.025 436.507C326.591 437.106 326.358 437.827 326.361 438.566C326.371 439.265 326.589 439.944 326.986 440.518L305.077 478.48C304.993 478.475 304.908 478.475 304.824 478.48C304.166 478.477 303.52 478.659 302.96 479.004C302.399 479.349 301.947 479.843 301.652 480.431H257.826C257.541 479.822 257.089 479.307 256.522 478.945C255.955 478.584 255.297 478.392 254.625 478.392H254.332L232.453 440.655C232.861 440.064 233.078 439.363 233.077 438.645C233.079 437.88 232.829 437.135 232.365 436.527L254.293 398.556L254.576 398.585Z" fill="#10CFC9"/>
<path opacity="0.3" d="M229.525 355.14C229.633 355.14 229.73 355.14 229.838 355.14L251.678 392.965C251.255 393.557 251.03 394.267 251.034 394.995C250.999 395.824 251.257 396.639 251.763 397.296C252.269 397.954 252.99 398.413 253.8 398.592C254.61 398.771 255.457 398.66 256.193 398.277C256.93 397.894 257.507 397.264 257.826 396.498H301.613C301.812 396.954 302.105 397.363 302.473 397.699C302.84 398.035 303.275 398.289 303.748 398.445C304.22 398.602 304.721 398.657 305.216 398.607C305.711 398.557 306.191 398.403 306.623 398.155C307.055 397.908 307.43 397.572 307.723 397.169C308.016 396.767 308.221 396.307 308.325 395.82C308.429 395.333 308.429 394.83 308.325 394.343C308.221 393.856 308.015 393.396 307.722 392.994L329.611 355.091H329.933C330.414 355.117 330.896 355.044 331.348 354.877C331.801 354.71 332.214 354.453 332.564 354.121C332.914 353.789 333.192 353.389 333.383 352.946C333.573 352.503 333.671 352.026 333.671 351.544C333.671 351.062 333.573 350.585 333.383 350.142C333.192 349.699 332.914 349.299 332.564 348.967C332.214 348.635 331.801 348.378 331.348 348.211C330.896 348.045 330.414 347.971 329.933 347.997C329.848 347.992 329.764 347.992 329.679 347.997L307.771 310.045C308.054 309.645 308.25 309.19 308.348 308.709C308.446 308.229 308.443 307.733 308.34 307.254C308.236 306.774 308.034 306.322 307.747 305.925C307.459 305.527 307.092 305.194 306.669 304.946C306.246 304.698 305.776 304.54 305.289 304.483C304.802 304.426 304.309 304.471 303.84 304.614C303.371 304.758 302.937 304.997 302.566 305.317C302.194 305.637 301.893 306.031 301.681 306.473H257.826C257.488 305.739 256.909 305.142 256.185 304.782C255.461 304.423 254.635 304.323 253.846 304.499C253.057 304.675 252.352 305.116 251.849 305.749C251.346 306.381 251.076 307.168 251.082 307.976C251.08 308.703 251.305 309.413 251.726 310.006L229.759 348.065H229.574C228.665 348.113 227.81 348.507 227.184 349.167C226.557 349.827 226.208 350.702 226.208 351.612C226.208 352.522 226.557 353.397 227.184 354.057C227.81 354.717 228.665 355.112 229.574 355.16L229.525 355.14ZM254.576 311.538C255.248 311.538 255.907 311.346 256.474 310.985C257.041 310.623 257.493 310.108 257.777 309.499H301.564C301.843 310.124 302.298 310.655 302.873 311.028C303.448 311.4 304.119 311.598 304.804 311.597C304.911 311.597 305.009 311.597 305.116 311.597L327.005 349.509C326.571 350.108 326.339 350.829 326.342 351.568C326.344 352.286 326.561 352.986 326.966 353.579L305.058 391.53C304.973 391.526 304.889 391.526 304.804 391.53C304.146 391.529 303.501 391.711 302.941 392.056C302.381 392.401 301.928 392.894 301.633 393.482H257.826C257.544 392.87 257.093 392.352 256.525 391.989C255.958 391.626 255.298 391.433 254.625 391.433H254.332L232.453 353.608C232.861 353.017 233.078 352.316 233.077 351.598C233.079 350.833 232.829 350.089 232.365 349.48L254.293 311.509L254.576 311.538Z" fill="#10CFC9"/>
<path opacity="0.6" d="M455.479 572.574C455.586 572.574 455.684 572.574 455.791 572.574L477.631 610.399C477.209 610.991 476.983 611.702 476.987 612.429C476.99 613.232 477.267 614.01 477.77 614.636C478.274 615.261 478.975 615.697 479.759 615.872C480.543 616.047 481.363 615.95 482.084 615.597C482.806 615.245 483.386 614.658 483.73 613.932H527.518C527.719 614.385 528.014 614.791 528.382 615.123C528.751 615.455 529.185 615.706 529.656 615.86C530.128 616.014 530.627 616.067 531.12 616.015C531.613 615.964 532.09 615.81 532.52 615.563C532.95 615.315 533.324 614.981 533.616 614.58C533.908 614.179 534.113 613.722 534.218 613.237C534.322 612.752 534.323 612.251 534.221 611.765C534.12 611.28 533.917 610.821 533.627 610.419L555.516 572.516H555.838C556.319 572.541 556.801 572.468 557.253 572.301C557.705 572.134 558.119 571.877 558.469 571.545C558.819 571.213 559.097 570.814 559.288 570.371C559.478 569.928 559.576 569.451 559.576 568.969C559.576 568.486 559.478 568.009 559.288 567.566C559.097 567.123 558.819 566.724 558.469 566.392C558.119 566.06 557.705 565.803 557.253 565.636C556.801 565.469 556.319 565.396 555.838 565.421C555.753 565.416 555.668 565.416 555.584 565.421L533.676 527.47C533.958 527.069 534.155 526.614 534.253 526.134C534.351 525.653 534.348 525.158 534.244 524.678C534.141 524.199 533.939 523.746 533.651 523.349C533.364 522.952 532.997 522.619 532.574 522.371C532.151 522.123 531.681 521.965 531.194 521.908C530.707 521.851 530.214 521.895 529.745 522.039C529.276 522.183 528.842 522.422 528.47 522.742C528.099 523.062 527.798 523.456 527.586 523.898H483.73C483.386 523.172 482.806 522.585 482.084 522.233C481.363 521.88 480.543 521.783 479.759 521.958C478.975 522.133 478.274 522.568 477.77 523.194C477.267 523.82 476.99 524.598 476.987 525.401C476.985 526.128 477.21 526.838 477.631 527.431L455.664 565.49H455.479C454.539 565.49 453.638 565.863 452.974 566.527C452.31 567.191 451.937 568.092 451.937 569.032C451.937 569.971 452.31 570.873 452.974 571.537C453.638 572.201 454.539 572.574 455.479 572.574ZM480.53 528.972C481.202 528.972 481.86 528.78 482.427 528.419C482.994 528.058 483.446 527.542 483.73 526.933H527.518C527.797 527.558 528.252 528.09 528.827 528.462C529.402 528.834 530.073 529.032 530.758 529.031C530.865 529.031 530.963 529.031 531.07 529.031L552.959 566.944C552.526 567.543 552.294 568.264 552.295 569.003C552.297 569.72 552.515 570.421 552.92 571.013L531.011 608.965C530.927 608.96 530.842 608.96 530.758 608.965C530.1 608.963 529.455 609.145 528.895 609.49C528.335 609.835 527.882 610.329 527.586 610.916H483.73C483.449 610.305 482.997 609.786 482.43 609.423C481.863 609.06 481.203 608.867 480.53 608.867H480.237L458.397 571.042C458.803 570.447 459.021 569.743 459.021 569.022C459.021 568.258 458.771 567.514 458.309 566.905L480.237 528.933L480.53 528.972Z" fill="#10CFC9"/>
<path opacity="0.2" d="M455.478 224.637C455.586 224.637 455.683 224.637 455.791 224.637L477.631 262.462C477.208 263.054 476.983 263.764 476.987 264.492C476.99 265.295 477.266 266.073 477.77 266.698C478.273 267.324 478.975 267.76 479.758 267.934C480.542 268.109 481.362 268.012 482.084 267.66C482.805 267.307 483.386 266.72 483.73 265.994H527.517C527.826 266.77 528.399 267.412 529.136 267.807C529.872 268.201 530.724 268.323 531.541 268.15C532.359 267.977 533.088 267.521 533.602 266.863C534.116 266.204 534.38 265.385 534.348 264.55C534.348 263.81 534.112 263.089 533.675 262.491L555.564 224.578H555.886C556.825 224.578 557.726 224.205 558.391 223.541C559.055 222.876 559.428 221.975 559.428 221.036C559.428 220.096 559.055 219.195 558.391 218.531C557.726 217.867 556.825 217.494 555.886 217.494H555.632L533.724 179.552C534.13 178.956 534.348 178.252 534.348 177.532C534.354 176.729 534.087 175.949 533.59 175.319C533.094 174.689 532.397 174.247 531.616 174.065C530.835 173.883 530.015 173.973 529.291 174.319C528.567 174.665 527.983 175.248 527.634 175.97H483.779C483.435 175.244 482.854 174.657 482.133 174.305C481.411 173.952 480.591 173.855 479.807 174.03C479.023 174.205 478.322 174.641 477.819 175.266C477.315 175.892 477.039 176.67 477.035 177.473C477.033 178.2 477.258 178.91 477.68 179.503L455.713 217.562H455.527C454.619 217.61 453.763 218.004 453.137 218.664C452.51 219.324 452.161 220.199 452.161 221.109C452.161 222.019 452.51 222.894 453.137 223.554C453.763 224.214 454.619 224.609 455.527 224.656L455.478 224.637ZM480.529 181.035C481.202 181.033 481.861 180.839 482.428 180.476C482.994 180.113 483.446 179.596 483.73 178.986H527.517C527.796 179.612 528.25 180.145 528.825 180.519C529.4 180.893 530.071 181.092 530.757 181.093C530.865 181.093 530.962 181.093 531.069 181.093L552.958 219.006C552.525 219.605 552.293 220.326 552.295 221.065C552.295 221.783 552.513 222.484 552.919 223.076L531.011 261.027C530.926 261.022 530.842 261.022 530.757 261.027C530.1 261.026 529.454 261.208 528.894 261.553C528.334 261.897 527.881 262.391 527.586 262.979H483.73C483.448 262.367 482.997 261.849 482.43 261.486C481.862 261.122 481.203 260.929 480.529 260.93H480.236L458.396 223.105C458.802 222.509 459.02 221.806 459.021 221.085C459.022 220.323 458.772 219.582 458.308 218.977L480.236 180.996C480.324 181.006 480.431 181.035 480.529 181.035Z" fill="#10CFC9"/>
<path opacity="0.6" d="M380.171 529.118C380.278 529.118 380.376 529.118 380.483 529.118L402.314 566.942C402.031 567.344 401.834 567.801 401.738 568.283C401.641 568.765 401.645 569.262 401.751 569.742C401.857 570.223 402.061 570.676 402.351 571.072C402.642 571.469 403.012 571.801 403.437 572.048C403.863 572.294 404.335 572.449 404.824 572.502C405.313 572.556 405.807 572.507 406.276 572.359C406.745 572.211 407.178 571.967 407.548 571.643C407.917 571.319 408.215 570.921 408.422 570.475H452.21C452.519 571.251 453.092 571.893 453.828 572.287C454.565 572.682 455.417 572.803 456.234 572.631C457.051 572.458 457.781 572.002 458.295 571.343C458.808 570.684 459.073 569.865 459.041 569.031C459.04 568.29 458.805 567.569 458.368 566.972L480.257 529.059C480.364 529.064 480.471 529.064 480.579 529.059C481.487 529.011 482.343 528.617 482.969 527.957C483.595 527.297 483.945 526.422 483.945 525.512C483.945 524.602 483.595 523.727 482.969 523.067C482.343 522.407 481.487 522.012 480.579 521.964H480.315L458.407 484.022C458.694 483.623 458.894 483.167 458.995 482.686C459.096 482.204 459.096 481.707 458.994 481.226C458.893 480.744 458.692 480.289 458.405 479.89C458.118 479.49 457.75 479.155 457.327 478.905C456.903 478.655 456.431 478.497 455.943 478.439C455.454 478.382 454.959 478.427 454.488 478.571C454.018 478.716 453.583 478.957 453.211 479.278C452.839 479.6 452.538 479.996 452.327 480.441H408.471C408.264 479.995 407.966 479.597 407.596 479.273C407.227 478.949 406.794 478.705 406.325 478.557C405.856 478.409 405.362 478.36 404.873 478.414C404.384 478.467 403.912 478.622 403.486 478.868C403.06 479.115 402.691 479.447 402.4 479.843C402.11 480.24 401.905 480.693 401.8 481.174C401.694 481.654 401.689 482.151 401.786 482.633C401.883 483.115 402.079 483.572 402.362 483.974L380.395 522.033H380.22C379.738 522.007 379.257 522.08 378.804 522.247C378.352 522.414 377.938 522.671 377.589 523.003C377.239 523.335 376.96 523.735 376.77 524.178C376.58 524.621 376.481 525.098 376.481 525.58C376.481 526.062 376.58 526.539 376.77 526.982C376.96 527.425 377.239 527.825 377.589 528.157C377.938 528.489 378.352 528.746 378.804 528.913C379.257 529.08 379.738 529.153 380.22 529.127L380.171 529.118ZM405.183 485.515C405.856 485.514 406.515 485.321 407.082 484.958C407.649 484.595 408.101 484.077 408.383 483.466H452.171C452.448 484.092 452.901 484.624 453.474 484.998C454.047 485.372 454.716 485.572 455.401 485.574C455.508 485.574 455.616 485.574 455.723 485.574L477.612 523.487C477.176 524.085 476.94 524.806 476.939 525.546C476.939 526.264 477.157 526.965 477.563 527.556L455.655 565.508H455.401C454.744 565.505 454.1 565.686 453.541 566.031C452.982 566.376 452.531 566.871 452.239 567.46H408.383C408.099 566.85 407.647 566.334 407.08 565.971C406.513 565.608 405.855 565.414 405.183 565.41C405.082 565.405 404.981 565.405 404.88 565.41L383.04 527.576C383.466 526.968 383.688 526.241 383.674 525.499C383.66 524.757 383.41 524.039 382.962 523.448L404.88 485.476C405.017 485.486 405.114 485.515 405.183 485.515Z" fill="#10CFC9"/>
<path opacity="0.3" d="M380.171 268.258C380.278 268.258 380.376 268.258 380.483 268.258L402.314 306.073C402.031 306.475 401.834 306.932 401.738 307.414C401.641 307.896 401.645 308.393 401.751 308.873C401.857 309.354 402.061 309.806 402.351 310.203C402.642 310.6 403.012 310.932 403.437 311.178C403.863 311.425 404.335 311.579 404.824 311.633C405.313 311.687 405.807 311.638 406.276 311.49C406.745 311.342 407.178 311.098 407.548 310.774C407.917 310.449 408.215 310.052 408.422 309.606H452.21C452.519 310.382 453.092 311.024 453.828 311.418C454.565 311.813 455.417 311.934 456.234 311.761C457.051 311.589 457.781 311.133 458.295 310.474C458.808 309.815 459.073 308.996 459.041 308.162C459.04 307.421 458.805 306.7 458.368 306.102L480.257 268.19C480.364 268.195 480.471 268.195 480.579 268.19C481.487 268.142 482.343 267.748 482.969 267.088C483.595 266.428 483.945 265.552 483.945 264.643C483.945 263.733 483.595 262.857 482.969 262.197C482.343 261.537 481.487 261.143 480.579 261.095H480.315L458.407 223.153C458.694 222.753 458.894 222.298 458.995 221.817C459.096 221.335 459.096 220.838 458.994 220.357C458.893 219.875 458.692 219.42 458.405 219.021C458.118 218.621 457.75 218.286 457.327 218.036C456.903 217.786 456.431 217.628 455.943 217.57C455.454 217.513 454.959 217.558 454.488 217.702C454.018 217.846 453.583 218.087 453.211 218.409C452.839 218.731 452.538 219.127 452.327 219.572H408.471C408.264 219.126 407.966 218.728 407.596 218.404C407.227 218.079 406.794 217.835 406.325 217.688C405.856 217.54 405.362 217.491 404.873 217.545C404.384 217.598 403.912 217.753 403.486 217.999C403.06 218.245 402.691 218.577 402.4 218.974C402.11 219.371 401.905 219.824 401.8 220.304C401.694 220.785 401.689 221.282 401.786 221.764C401.883 222.246 402.079 222.702 402.362 223.104L380.395 261.164H380.22C379.738 261.138 379.257 261.211 378.804 261.378C378.352 261.545 377.938 261.802 377.589 262.134C377.239 262.466 376.96 262.866 376.77 263.309C376.58 263.752 376.481 264.229 376.481 264.711C376.481 265.193 376.58 265.67 376.77 266.113C376.96 266.556 377.239 266.956 377.589 267.288C377.938 267.619 378.352 267.877 378.804 268.044C379.257 268.21 379.738 268.283 380.22 268.258H380.171ZM405.183 224.656C405.856 224.655 406.515 224.462 407.082 224.099C407.649 223.736 408.101 223.218 408.383 222.607H452.171C452.448 223.233 452.901 223.765 453.474 224.139C454.047 224.513 454.716 224.713 455.401 224.715H455.723L477.612 262.618C477.176 263.216 476.94 263.937 476.939 264.677C476.939 265.394 477.157 266.095 477.563 266.687L455.655 304.639H455.401C454.744 304.636 454.1 304.817 453.541 305.162C452.982 305.507 452.531 306.002 452.239 306.59H408.383C408.099 305.981 407.647 305.464 407.08 305.102C406.513 304.739 405.855 304.544 405.183 304.541C405.082 304.536 404.981 304.536 404.88 304.541L383.079 266.706C383.505 266.099 383.727 265.372 383.713 264.63C383.699 263.888 383.45 263.17 383.001 262.579L404.919 224.607C405.017 224.627 405.114 224.656 405.183 224.656Z" fill="#10CFC9"/>
<path opacity="0.2" d="M380.171 181.171C380.278 181.171 380.376 181.171 380.483 181.171L402.313 218.986C402.031 219.388 401.834 219.845 401.737 220.327C401.641 220.809 401.645 221.306 401.751 221.786C401.857 222.266 402.061 222.719 402.351 223.116C402.642 223.513 403.011 223.845 403.437 224.091C403.863 224.337 404.335 224.492 404.824 224.546C405.313 224.599 405.807 224.551 406.276 224.403C406.745 224.255 407.178 224.011 407.548 223.686C407.917 223.362 408.215 222.964 408.422 222.518H452.21C452.409 222.975 452.702 223.384 453.069 223.72C453.437 224.056 453.872 224.31 454.344 224.466C454.817 224.623 455.318 224.678 455.813 224.628C456.308 224.578 456.788 224.424 457.22 224.176C457.651 223.928 458.026 223.592 458.32 223.19C458.613 222.788 458.818 222.328 458.922 221.841C459.026 221.354 459.026 220.851 458.922 220.364C458.818 219.877 458.612 219.417 458.319 219.015L480.208 181.102C480.315 181.108 480.422 181.108 480.53 181.102C481.438 181.055 482.294 180.66 482.92 180C483.546 179.34 483.896 178.465 483.896 177.555C483.896 176.645 483.546 175.77 482.92 175.11C482.294 174.45 481.438 174.055 480.53 174.008C480.442 174.003 480.354 174.003 480.266 174.008L458.358 136.056C458.77 135.467 458.991 134.765 458.992 134.046C458.992 133.104 458.618 132.2 457.952 131.534C457.286 130.868 456.382 130.494 455.44 130.494C454.783 130.491 454.139 130.672 453.58 131.017C453.021 131.362 452.57 131.857 452.278 132.445H408.422C408.218 131.996 407.922 131.594 407.553 131.265C407.184 130.937 406.75 130.689 406.28 130.539C405.81 130.388 405.313 130.337 404.822 130.389C404.331 130.442 403.856 130.596 403.428 130.843C403 131.09 402.629 131.423 402.337 131.822C402.046 132.221 401.841 132.676 401.736 133.159C401.631 133.641 401.628 134.141 401.728 134.625C401.827 135.108 402.027 135.566 402.313 135.968L380.347 174.027H380.171C379.689 174.002 379.208 174.075 378.755 174.242C378.303 174.409 377.889 174.666 377.54 174.998C377.19 175.33 376.911 175.729 376.721 176.172C376.531 176.615 376.433 177.092 376.433 177.575C376.433 178.057 376.531 178.534 376.721 178.977C376.911 179.42 377.19 179.819 377.54 180.151C377.889 180.483 378.303 180.74 378.755 180.907C379.208 181.074 379.689 181.147 380.171 181.122V181.171ZM405.183 137.569C405.856 137.568 406.515 137.374 407.082 137.011C407.649 136.648 408.101 136.13 408.383 135.519H452.171C452.448 136.145 452.901 136.677 453.474 137.051C454.047 137.426 454.716 137.626 455.401 137.627H455.723L477.612 175.54C477.176 176.135 476.94 176.852 476.938 177.589C476.937 178.307 477.155 179.008 477.563 179.6L455.655 217.551H455.401C454.744 217.548 454.1 217.73 453.541 218.075C452.982 218.42 452.531 218.915 452.239 219.503H408.383C408.098 218.894 407.646 218.379 407.079 218.018C406.512 217.657 405.855 217.465 405.183 217.463C405.082 217.458 404.981 217.458 404.88 217.463L383.04 179.629C383.466 179.021 383.688 178.294 383.674 177.552C383.66 176.81 383.41 176.092 382.962 175.501L404.88 137.53C404.98 137.548 405.081 137.561 405.183 137.569Z" fill="#10CFC9"/>
<path opacity="0.1" d="M380.17 94.1722C380.278 94.1722 380.375 94.1722 380.483 94.1722L402.313 131.997C402.026 132.399 401.827 132.857 401.727 133.341C401.628 133.825 401.631 134.324 401.736 134.806C401.841 135.289 402.045 135.744 402.337 136.143C402.628 136.542 403 136.876 403.427 137.122C403.855 137.369 404.33 137.524 404.821 137.576C405.312 137.629 405.809 137.578 406.279 137.427C406.75 137.276 407.183 137.028 407.552 136.7C407.921 136.371 408.217 135.97 408.422 135.52H452.209C452.408 135.976 452.701 136.386 453.069 136.721C453.437 137.057 453.871 137.311 454.344 137.468C454.817 137.624 455.317 137.679 455.812 137.629C456.308 137.579 456.787 137.425 457.219 137.178C457.651 136.93 458.026 136.594 458.319 136.192C458.612 135.789 458.818 135.33 458.921 134.843C459.025 134.356 459.025 133.852 458.921 133.365C458.817 132.878 458.612 132.419 458.318 132.017L480.207 94.1136C480.314 94.1136 480.412 94.1136 480.529 94.1136C481.438 94.066 482.293 93.6714 482.92 93.0114C483.546 92.3514 483.895 91.4762 483.895 90.5663C483.895 89.6565 483.546 88.7813 482.92 88.1213C482.293 87.4612 481.438 87.0667 480.529 87.019C480.441 87.0143 480.353 87.0143 480.266 87.019L458.357 49.0869C458.772 48.4989 458.994 47.7963 458.992 47.0766C458.997 46.2744 458.73 45.4941 458.233 44.864C457.737 44.234 457.041 43.7917 456.259 43.61C455.478 43.4283 454.658 43.5179 453.934 43.8642C453.211 44.2104 452.626 44.7927 452.278 45.5152H408.422C408.214 45.0693 407.917 44.6716 407.547 44.3471C407.178 44.0227 406.744 43.7788 406.276 43.6309C405.807 43.483 405.312 43.4343 404.823 43.488C404.335 43.5416 403.862 43.6965 403.437 43.9426C403.011 44.1888 402.641 44.5208 402.351 44.9177C402.061 45.3146 401.856 45.7675 401.75 46.2477C401.645 46.728 401.64 47.2249 401.737 47.707C401.834 48.1891 402.03 48.6457 402.313 49.0479L380.346 87.1069H380.17C379.231 87.1069 378.33 87.4801 377.666 88.1444C377.001 88.8088 376.628 89.7098 376.628 90.6493C376.628 91.5888 377.001 92.4898 377.666 93.1542C378.33 93.8185 379.231 94.1917 380.17 94.1917V94.1722ZM405.182 50.5702C405.854 50.5689 406.512 50.3764 407.079 50.0153C407.645 49.6541 408.098 49.1392 408.383 48.5306H452.17C452.448 49.1554 452.901 49.6862 453.474 50.0586C454.048 50.4311 454.717 50.6291 455.4 50.6288H455.722L477.611 88.5414C477.175 89.1397 476.94 89.8603 476.938 90.6005C476.94 91.318 477.158 92.0184 477.562 92.6108L455.654 130.562C455.57 130.558 455.485 130.558 455.4 130.562C454.744 130.561 454.1 130.743 453.541 131.088C452.983 131.432 452.531 131.927 452.239 132.514H408.383C408.1 131.903 407.649 131.385 407.082 131.022C406.514 130.659 405.855 130.466 405.182 130.465C405.081 130.46 404.98 130.46 404.879 130.465L383.039 92.6303C383.455 92.0424 383.676 91.3397 383.674 90.62C383.671 89.8558 383.421 89.1129 382.961 88.5024L404.879 50.5312C404.979 50.5494 405.081 50.5625 405.182 50.5702Z" fill="#10CFC9"/>
<path d="M363.62 217.121C361.063 219.434 357.738 220.715 354.291 220.715C350.843 220.715 347.518 219.434 344.961 217.121C341.966 218.571 339.349 220.698 337.317 223.333C335.284 225.969 333.893 229.04 333.251 232.306C335.482 235.883 338.587 238.834 342.274 240.88C345.961 242.926 350.108 244 354.325 244C358.541 244 362.688 242.926 366.375 240.88C370.062 238.834 373.168 235.883 375.399 232.306C374.75 229.034 373.348 225.958 371.303 223.322C369.259 220.686 366.628 218.563 363.62 217.121ZM361.58 234.043C361.582 234.138 361.564 234.233 361.528 234.322C361.493 234.411 361.44 234.492 361.372 234.56C361.305 234.628 361.225 234.682 361.137 234.719C361.049 234.756 360.954 234.775 360.858 234.775H357.433C357.338 234.775 357.244 234.793 357.157 234.83C357.069 234.866 356.989 234.919 356.922 234.986C356.855 235.053 356.802 235.133 356.766 235.22C356.73 235.308 356.711 235.402 356.711 235.497V238.922C356.708 239.115 356.63 239.3 356.494 239.437C356.357 239.574 356.172 239.651 355.979 239.654H352.602C352.41 239.651 352.226 239.573 352.091 239.436C351.956 239.299 351.88 239.115 351.88 238.922V235.477C351.88 235.382 351.861 235.287 351.824 235.199C351.788 235.11 351.734 235.03 351.665 234.963C351.597 234.896 351.517 234.843 351.428 234.807C351.339 234.772 351.244 234.754 351.148 234.755H347.723C347.627 234.755 347.533 234.736 347.444 234.699C347.356 234.662 347.276 234.608 347.209 234.54C347.142 234.472 347.089 234.391 347.053 234.303C347.017 234.214 347 234.119 347.001 234.023V230.647C347.001 230.455 347.077 230.271 347.213 230.136C347.348 230.001 347.532 229.925 347.723 229.925H351.148C351.244 229.926 351.339 229.908 351.428 229.872C351.517 229.837 351.597 229.784 351.665 229.717C351.734 229.649 351.788 229.569 351.824 229.481C351.861 229.393 351.88 229.298 351.88 229.202V225.777C351.88 225.585 351.956 225.4 352.091 225.263C352.226 225.126 352.41 225.048 352.602 225.045H355.979C356.172 225.048 356.357 225.126 356.494 225.262C356.63 225.399 356.708 225.584 356.711 225.777V229.202C356.711 229.394 356.787 229.578 356.922 229.713C357.058 229.848 357.241 229.925 357.433 229.925H360.858C361.05 229.925 361.234 230.001 361.369 230.136C361.504 230.271 361.58 230.455 361.58 230.647V234.043Z" stroke="#10CFC9" stroke-width="0.95" stroke-miterlimit="10"/>
<path d="M354.29 195.964C356.439 195.964 358.539 196.601 360.326 197.795C362.112 198.989 363.504 200.686 364.326 202.671C365.148 204.657 365.362 206.841 364.942 208.948C364.523 211.055 363.487 212.991 361.967 214.509C360.447 216.028 358.511 217.062 356.403 217.48C354.296 217.898 352.112 217.681 350.127 216.857C348.143 216.034 346.447 214.64 345.255 212.853C344.062 211.065 343.427 208.964 343.429 206.816C343.434 203.938 344.58 201.179 346.616 199.145C348.653 197.111 351.412 195.967 354.29 195.964ZM354.29 194.988C351.944 194.988 349.651 195.684 347.7 196.989C345.75 198.293 344.23 200.146 343.333 202.315C342.437 204.483 342.204 206.868 342.664 209.169C343.123 211.47 344.256 213.583 345.917 215.24C347.578 216.897 349.693 218.024 351.995 218.478C354.297 218.932 356.682 218.693 358.848 217.791C361.014 216.889 362.864 215.365 364.163 213.411C365.463 211.457 366.153 209.162 366.147 206.816C366.147 205.259 365.841 203.718 365.245 202.28C364.649 200.842 363.775 199.535 362.674 198.435C361.573 197.335 360.266 196.463 358.827 195.868C357.389 195.273 355.847 194.967 354.29 194.969" fill="#10CFC9"/>
<path d="M279.724 336.588L284.243 340.355L300.208 353.656C300.316 353.793 300.457 353.901 300.617 353.97C300.778 354.039 300.953 354.066 301.127 354.049C301.3 354.033 301.467 353.973 301.612 353.875C301.757 353.778 301.874 353.645 301.955 353.491L303.399 351.763C304.014 351.031 303.994 350.573 303.263 349.958L295.826 343.771L283.052 333.124C282.509 332.627 281.909 332.195 281.266 331.836C280.645 331.505 279.938 331.373 279.239 331.459C278.541 331.545 277.886 331.843 277.363 332.314C275.07 334.198 272.806 336.11 270.532 338.003L270.151 338.326C270.151 338.111 270.151 337.974 270.151 337.838C270.151 336.169 270.151 334.49 270.151 332.822C270.151 331.846 269.829 331.553 268.873 331.553H263.769C262.793 331.553 262.5 331.885 262.5 332.841C262.5 336.666 262.5 340.502 262.5 344.337C262.511 344.458 262.49 344.579 262.439 344.689C262.387 344.799 262.307 344.893 262.208 344.961L256.411 349.782C256.265 349.895 256.124 350.015 255.991 350.143C255.888 350.217 255.801 350.311 255.737 350.421C255.672 350.53 255.631 350.651 255.616 350.777C255.602 350.903 255.614 351.031 255.651 351.152C255.689 351.273 255.752 351.385 255.835 351.48C256.44 352.251 257.065 353.003 257.709 353.725C257.8 353.825 257.912 353.906 258.036 353.961C258.161 354.016 258.295 354.044 258.431 354.044C258.567 354.044 258.701 354.016 258.826 353.961C258.95 353.906 259.062 353.825 259.153 353.725L263.798 349.821L275.928 339.701L279.724 336.588Z" stroke="#10CFC9" stroke-width="1.01" stroke-miterlimit="10"/>
<path d="M296.958 354.827C296.995 354.381 296.916 353.934 296.728 353.528C296.54 353.123 296.249 352.773 295.885 352.514C290.566 348.201 285.306 343.829 280.027 339.467C279.989 339.421 279.941 339.385 279.887 339.36C279.833 339.335 279.774 339.322 279.715 339.322C279.655 339.322 279.597 339.335 279.543 339.36C279.489 339.385 279.441 339.421 279.402 339.467C274.133 343.829 268.863 348.201 263.544 352.514C263.184 352.777 262.896 353.127 262.708 353.531C262.52 353.936 262.439 354.382 262.471 354.827C262.53 359.101 262.471 363.385 262.471 367.66C262.433 367.955 262.463 368.255 262.559 368.537C262.655 368.819 262.814 369.075 263.024 369.286C263.234 369.497 263.489 369.657 263.771 369.754C264.052 369.851 264.352 369.882 264.647 369.846H294.724C295.02 369.884 295.321 369.854 295.603 369.757C295.886 369.661 296.143 369.501 296.354 369.29C296.565 369.079 296.725 368.822 296.821 368.539C296.918 368.257 296.948 367.956 296.91 367.66C296.939 363.385 296.861 359.101 296.958 354.827ZM279.724 364.966C276.543 362.839 268.863 357.384 273.079 353.148C276.26 349.948 279.724 355.022 279.724 355.022C279.724 355.022 283.189 349.948 286.37 353.148C290.586 357.384 282.906 362.839 279.724 364.966Z" stroke="#10CFC9" stroke-width="1.01" stroke-miterlimit="10"/>
<path d="M221.718 118.374C221.718 115.192 220.811 112.684 219.015 110.938C217.219 109.191 214.624 108.264 211.208 108.264" stroke="#10CFC9" stroke-width="1.51" stroke-miterlimit="10"/>
<path d="M217.942 118.373C217.942 114.196 215.99 112.068 211.228 112.068" stroke="#10CFC9" stroke-width="1.51" stroke-miterlimit="10"/>
<path d="M183.532 150.967C183.532 154.148 184.45 156.656 186.235 158.403C188.021 160.15 190.627 161.077 194.042 161.077" stroke="#10CFC9" stroke-width="1.51" stroke-miterlimit="10"/>
<path d="M187.338 150.967C187.338 155.144 189.29 157.271 194.052 157.271" stroke="#10CFC9" stroke-width="1.51" stroke-miterlimit="10"/>
<path d="M211.335 116.207H194.072C193.172 116.207 192.442 116.937 192.442 117.837V151.182C192.442 152.082 193.172 152.812 194.072 152.812H211.335C212.235 152.812 212.965 152.082 212.965 151.182V117.837C212.965 116.937 212.235 116.207 211.335 116.207Z" stroke="#10CFC9" stroke-width="1.01" stroke-miterlimit="10"/>
<path d="M193.506 148.079H211.442L211.667 119.018H193.73L193.506 148.079Z" stroke="#10CFC9" stroke-width="0.51" stroke-miterlimit="10"/>
<path d="M204.055 150.343C204.055 150.611 203.975 150.873 203.826 151.096C203.677 151.319 203.465 151.493 203.217 151.596C202.969 151.699 202.697 151.726 202.434 151.673C202.17 151.621 201.929 151.492 201.739 151.302C201.549 151.112 201.42 150.871 201.368 150.607C201.316 150.344 201.342 150.072 201.445 149.824C201.548 149.576 201.722 149.364 201.945 149.215C202.168 149.066 202.43 148.986 202.698 148.986C203.058 148.986 203.403 149.129 203.657 149.384C203.912 149.638 204.055 149.983 204.055 150.343Z" stroke="#10CFC9" stroke-width="0.35" stroke-miterlimit="10"/>
<path d="M205.997 141.306C205.382 141.262 204.779 141.117 204.211 140.877C202.24 140.103 200.478 138.876 199.068 137.296C197.818 135.984 196.857 134.425 196.248 132.719C196.049 132.201 195.94 131.653 195.926 131.099C195.924 130.72 196.011 130.345 196.18 130.006C196.35 129.667 196.597 129.373 196.902 129.147C197.038 129.037 197.182 128.936 197.331 128.845C197.625 128.644 197.978 128.55 198.333 128.577C198.687 128.603 199.022 128.749 199.283 128.991C199.645 129.321 199.972 129.687 200.259 130.084C200.459 130.324 200.574 130.625 200.585 130.937C200.596 131.25 200.501 131.558 200.317 131.811C200.119 132.099 199.9 132.373 199.663 132.631C199.521 132.758 199.428 132.933 199.403 133.123C199.378 133.313 199.422 133.505 199.527 133.665C199.818 134.166 200.144 134.645 200.503 135.1C201.23 135.986 202.085 136.758 203.04 137.393C203.158 137.471 203.282 137.539 203.411 137.598C203.564 137.689 203.744 137.725 203.92 137.702C204.097 137.679 204.261 137.598 204.387 137.471C204.636 137.25 204.896 137.041 205.167 136.847C205.438 136.634 205.774 136.522 206.118 136.531C206.462 136.54 206.792 136.669 207.051 136.895C207.536 137.22 207.948 137.642 208.261 138.135C208.397 138.362 208.468 138.622 208.468 138.886C208.468 139.151 208.397 139.411 208.261 139.638C208.087 140.04 207.819 140.394 207.479 140.671C207.139 140.948 206.738 141.139 206.309 141.228H205.86" fill="#10CFC9"/>
<path d="M203.86 126.824H205.246C205.277 126.824 205.307 126.83 205.335 126.842C205.364 126.854 205.39 126.871 205.411 126.893C205.433 126.915 205.45 126.94 205.462 126.969C205.474 126.997 205.48 127.028 205.48 127.058V131.655C205.48 131.717 205.455 131.776 205.411 131.82C205.368 131.864 205.308 131.889 205.246 131.889H203.86C203.798 131.889 203.738 131.864 203.695 131.82C203.651 131.776 203.626 131.717 203.626 131.655V127.058C203.626 127.028 203.632 126.997 203.644 126.969C203.656 126.94 203.673 126.915 203.695 126.893C203.716 126.871 203.742 126.854 203.771 126.842C203.799 126.83 203.829 126.824 203.86 126.824Z" fill="#10CFC9"/>
<path d="M203.841 132.914H205.226C205.288 132.914 205.348 132.939 205.392 132.983C205.436 133.027 205.461 133.086 205.461 133.148V134.534C205.461 134.596 205.436 134.656 205.392 134.7C205.348 134.744 205.288 134.768 205.226 134.768H203.841C203.81 134.77 203.78 134.765 203.752 134.754C203.723 134.743 203.697 134.727 203.676 134.706C203.654 134.685 203.636 134.66 203.624 134.632C203.613 134.604 203.606 134.574 203.606 134.544V133.148C203.609 133.088 203.635 133.031 203.678 132.989C203.722 132.947 203.78 132.924 203.841 132.924" fill="#10CFC9"/>
<path d="M423.567 105.452H412.013C411.895 105.452 411.778 105.429 411.67 105.384C411.561 105.339 411.462 105.272 411.378 105.189C411.295 105.106 411.229 105.007 411.184 104.898C411.138 104.789 411.115 104.672 411.115 104.554V79.4255L419.01 70.7988H438.528C438.766 70.7988 438.994 70.8934 439.162 71.0618C439.331 71.2302 439.425 71.4585 439.425 71.6966V93.9758" stroke="#10CFC9" stroke-width="1.01" stroke-miterlimit="10"/>
<path d="M419.03 70.7988V78.5277C419.03 78.7658 418.935 78.9942 418.767 79.1626C418.598 79.331 418.37 79.4255 418.132 79.4255H411.135" stroke="#10CFC9" stroke-width="1.01" stroke-miterlimit="10"/>
<path d="M422.738 75.1133H436.361" stroke="#10CFC9" stroke-width="1.01" stroke-miterlimit="10"/>
<path d="M422.738 79.416H436.361" stroke="#10CFC9" stroke-width="1.01" stroke-miterlimit="10"/>
<path d="M415.088 83.7305H436.362" stroke="#10CFC9" stroke-width="1.01" stroke-miterlimit="10"/>
<path d="M415.088 88.043H436.362" stroke="#10CFC9" stroke-width="1.01" stroke-miterlimit="10"/>
<path d="M415.088 92.3574H436.362" stroke="#10CFC9" stroke-width="1.01" stroke-miterlimit="10"/>
<path d="M415.088 96.6602H423.568" stroke="#10CFC9" stroke-width="1.01" stroke-miterlimit="10"/>
<path d="M415.088 100.973H423.568" stroke="#10CFC9" stroke-width="1.01" stroke-miterlimit="10"/>
<path d="M426.739 95.8299V106.662C426.739 106.74 426.763 106.815 426.806 106.88C426.85 106.944 426.911 106.994 426.983 107.023L427.774 107.326C427.918 107.381 428.072 107.406 428.227 107.4C428.381 107.394 428.533 107.356 428.673 107.29C428.813 107.223 428.937 107.129 429.039 107.012C429.141 106.896 429.219 106.76 429.267 106.613L432.048 98.0256C432.094 97.8802 432.111 97.727 432.097 97.575C432.084 97.4229 432.039 97.2753 431.968 97.1406C431.896 97.006 431.797 96.8871 431.679 96.791C431.56 96.695 431.424 96.6236 431.277 96.5813L427.227 95.4395C427.168 95.4221 427.106 95.4191 427.046 95.4309C426.986 95.4427 426.929 95.4689 426.881 95.5072C426.833 95.5456 426.795 95.5949 426.771 95.6511C426.746 95.7073 426.735 95.7686 426.739 95.8299Z" stroke="#10CFC9" stroke-width="1.01" stroke-miterlimit="10"/>
<path d="M453.224 95.831V106.663C453.224 106.741 453.201 106.817 453.157 106.881C453.114 106.945 453.052 106.995 452.98 107.024L452.2 107.327C452.055 107.383 451.901 107.41 451.746 107.404C451.591 107.399 451.438 107.362 451.298 107.295C451.158 107.228 451.034 107.133 450.932 107.016C450.83 106.899 450.753 106.762 450.707 106.614L447.916 98.0267C447.869 97.8807 447.853 97.7268 447.867 97.5743C447.882 97.4218 447.927 97.2738 448 97.139C448.072 97.0042 448.172 96.8855 448.291 96.7899C448.411 96.6943 448.549 96.6237 448.696 96.5824L452.746 95.4406C452.804 95.4251 452.865 95.4236 452.924 95.4362C452.983 95.4489 453.038 95.4754 453.085 95.5135C453.132 95.5516 453.169 95.6003 453.193 95.6555C453.217 95.7107 453.228 95.7708 453.224 95.831Z" stroke="#10CFC9" stroke-width="1.01" stroke-miterlimit="10"/>
<path d="M440.402 100.545C439.917 100.823 439.389 101.017 438.84 101.12C437.63 102.545 436.225 102.448 435.503 101.882C434.781 101.316 435.747 99.4029 437.708 97.6073L437.884 97.4512L432.029 98.0562L429.96 104.438C432.504 106.687 435.173 108.792 437.952 110.743C440.421 112.402 441.075 111.143 441.075 111.143C443.027 111.992 443.456 109.728 443.456 109.728C445.72 110.801 445.671 108.547 445.671 108.547C447.848 109.025 447.496 106.859 447.496 106.859C445.347 104.523 442.971 102.408 440.402 100.545Z" stroke="#10CFC9" stroke-width="1.01" stroke-miterlimit="10"/>
<path d="M448.199 98.924C448.199 98.924 443.368 97.3333 441.524 96.7088C440.911 96.4591 440.239 96.3963 439.591 96.5283C438.943 96.6603 438.349 96.9812 437.884 97.4504L437.708 97.6066C435.756 99.4022 434.78 101.266 435.502 101.881C436.225 102.496 437.63 102.545 438.84 101.12C439.389 101.016 439.917 100.822 440.401 100.544C442.977 102.407 445.36 104.522 447.515 106.858L450.287 105.375L448.199 98.924Z" stroke="#10CFC9" stroke-width="1.01" stroke-miterlimit="10"/>
<path d="M438.04 107.854L441.095 111.142" stroke="#10CFC9" stroke-width="1.01" stroke-miterlimit="10"/>
<path d="M440.274 106.545L443.475 109.726" stroke="#10CFC9" stroke-width="1.01" stroke-miterlimit="10"/>
<path d="M442.197 105.023L445.691 108.546" stroke="#10CFC9" stroke-width="1.01" stroke-miterlimit="10"/>
<path d="M149.182 336.383C149.182 335.91 148.994 335.456 148.659 335.121C148.324 334.786 147.87 334.598 147.396 334.598H107.307C106.835 334.6 106.384 334.79 106.051 335.124C105.718 335.459 105.531 335.912 105.531 336.383V358.946H149.182V336.383Z" stroke="#10CFC9" stroke-width="1.01" stroke-miterlimit="10"/>
<path d="M107.307 364.449H147.396C147.867 364.447 148.319 364.259 148.653 363.927C148.987 363.595 149.177 363.144 149.182 362.673V358.945H105.531V362.673C105.534 363.143 105.722 363.594 106.054 363.926C106.387 364.259 106.837 364.447 107.307 364.449Z" stroke="#10CFC9" stroke-width="1.01" stroke-miterlimit="10"/>
<path d="M133.499 370.597H121.203C121.141 370.598 121.079 370.585 121.022 370.56C120.966 370.534 120.915 370.496 120.875 370.448C120.835 370.4 120.806 370.344 120.79 370.284C120.774 370.224 120.772 370.161 120.784 370.1L121.877 364.449H132.806L133.89 370.148C133.894 370.203 133.887 370.259 133.869 370.311C133.852 370.364 133.824 370.412 133.788 370.454C133.751 370.496 133.707 370.53 133.658 370.554C133.608 370.579 133.554 370.593 133.499 370.597Z" stroke="#10CFC9" stroke-width="1.01" stroke-miterlimit="10"/>
<path d="M109.405 339.906H119.603" stroke="#10CFC9" stroke-width="1.01" stroke-miterlimit="10"/>
<path d="M109.405 352.23H119.603" stroke="#10CFC9" stroke-width="1.01" stroke-miterlimit="10"/>
<path d="M109.405 343.127H123.741" stroke="#10CFC9" stroke-width="1.01" stroke-miterlimit="10"/>
<path d="M109.405 346.133H116.188" stroke="#10CFC9" stroke-width="1.01" stroke-miterlimit="10"/>
<path d="M109.405 355.227H116.188" stroke="#10CFC9" stroke-width="1.01" stroke-miterlimit="10"/>
<path d="M109.405 349.139H121.321" stroke="#10CFC9" stroke-width="1.01" stroke-miterlimit="10"/>
<path d="M126.629 350.641L130.152 355.032L133.841 350.641L137.295 355.032L141.267 350.641L144.78 355.032" stroke="#10CFC9" stroke-width="1.01" stroke-miterlimit="10"/>
<path d="M132.553 350.632C132.553 350.887 132.629 351.137 132.771 351.349C132.913 351.561 133.114 351.726 133.35 351.823C133.586 351.92 133.846 351.945 134.096 351.895C134.346 351.844 134.575 351.72 134.755 351.539C134.935 351.358 135.057 351.128 135.106 350.877C135.154 350.627 135.127 350.367 135.028 350.132C134.929 349.897 134.763 349.696 134.549 349.556C134.336 349.416 134.086 349.342 133.831 349.344C133.662 349.344 133.495 349.377 133.34 349.442C133.184 349.507 133.043 349.602 132.924 349.722C132.805 349.841 132.711 349.983 132.647 350.14C132.584 350.296 132.551 350.463 132.553 350.632Z" fill="#10CFC9"/>
<path d="M139.979 350.632C139.979 350.887 140.055 351.136 140.197 351.348C140.338 351.559 140.539 351.725 140.775 351.822C141.01 351.919 141.269 351.945 141.519 351.895C141.769 351.846 141.998 351.723 142.179 351.543C142.359 351.363 142.481 351.133 142.531 350.883C142.581 350.633 142.555 350.374 142.458 350.139C142.36 349.904 142.195 349.702 141.983 349.561C141.771 349.419 141.522 349.344 141.268 349.344C140.926 349.344 140.598 349.479 140.357 349.721C140.115 349.963 139.979 350.29 139.979 350.632Z" fill="#10CFC9"/>
<path d="M125.37 350.632C125.37 350.887 125.446 351.137 125.588 351.349C125.73 351.561 125.932 351.726 126.168 351.823C126.404 351.92 126.663 351.945 126.913 351.895C127.163 351.844 127.393 351.72 127.573 351.539C127.752 351.358 127.874 351.128 127.923 350.877C127.971 350.627 127.945 350.367 127.846 350.132C127.747 349.897 127.58 349.696 127.367 349.556C127.154 349.416 126.904 349.342 126.649 349.344C126.48 349.344 126.313 349.377 126.157 349.442C126.001 349.507 125.86 349.602 125.741 349.722C125.622 349.841 125.528 349.983 125.465 350.14C125.401 350.296 125.369 350.463 125.37 350.632Z" fill="#10CFC9"/>
<path d="M136.007 355.032C136.007 355.287 136.082 355.536 136.224 355.748C136.366 355.96 136.567 356.125 136.802 356.222C137.037 356.32 137.296 356.345 137.546 356.296C137.796 356.246 138.026 356.123 138.206 355.943C138.386 355.763 138.509 355.534 138.558 355.284C138.608 355.034 138.583 354.775 138.485 354.539C138.388 354.304 138.223 354.103 138.011 353.961C137.799 353.82 137.55 353.744 137.295 353.744C137.126 353.743 136.957 353.775 136.801 353.84C136.644 353.904 136.501 353.999 136.381 354.119C136.261 354.238 136.167 354.381 136.102 354.538C136.038 354.695 136.006 354.863 136.007 355.032Z" fill="#10CFC9"/>
<path d="M143.443 355.032C143.443 355.288 143.519 355.537 143.661 355.749C143.803 355.961 144.005 356.126 144.241 356.223C144.477 356.321 144.736 356.345 144.986 356.295C145.237 356.244 145.466 356.121 145.646 355.94C145.826 355.759 145.948 355.528 145.996 355.278C146.045 355.027 146.018 354.768 145.919 354.533C145.82 354.297 145.653 354.097 145.44 353.957C145.227 353.816 144.977 353.742 144.722 353.744C144.553 353.744 144.386 353.778 144.23 353.842C144.075 353.907 143.933 354.002 143.814 354.122C143.696 354.242 143.602 354.384 143.538 354.54C143.474 354.696 143.442 354.864 143.443 355.032Z" fill="#10CFC9"/>
<path d="M128.825 355.032C128.825 355.287 128.901 355.536 129.042 355.748C129.184 355.96 129.385 356.125 129.62 356.222C129.856 356.32 130.115 356.345 130.365 356.296C130.615 356.246 130.844 356.123 131.024 355.943C131.204 355.763 131.327 355.534 131.377 355.284C131.426 355.034 131.401 354.775 131.304 354.539C131.206 354.304 131.041 354.103 130.829 353.961C130.617 353.82 130.368 353.744 130.113 353.744C129.944 353.743 129.776 353.775 129.619 353.84C129.462 353.904 129.32 353.999 129.2 354.119C129.08 354.238 128.985 354.381 128.921 354.538C128.856 354.695 128.824 354.863 128.825 355.032Z" fill="#10CFC9"/>
<path d="M140.184 342.394C140.184 341.622 139.955 340.867 139.526 340.225C139.097 339.583 138.488 339.083 137.774 338.787C137.061 338.492 136.276 338.415 135.519 338.565C134.762 338.716 134.066 339.088 133.52 339.634C132.974 340.179 132.603 340.875 132.452 341.632C132.301 342.389 132.379 343.174 132.674 343.888C132.97 344.601 133.47 345.21 134.112 345.639C134.754 346.068 135.508 346.297 136.28 346.297C137.316 346.297 138.309 345.886 139.041 345.154C139.773 344.422 140.184 343.429 140.184 342.394Z" stroke="#10CFC9" stroke-width="1.01" stroke-miterlimit="10"/>
<path d="M136.271 338.48V342.394L132.885 344.345L136.271 342.394L139.657 344.345" stroke="#10CFC9" stroke-width="1.01" stroke-miterlimit="10"/>
<path d="M136.271 342.394L132.357 341.926" stroke="#10CFC9" stroke-width="1.01" stroke-miterlimit="10"/>
<path d="M365.835 481.945L378.19 487.585L365.835 493.44L353.471 487.585L365.835 481.945ZM365.835 480.871L351.197 487.575L365.835 494.504L380.473 487.575L365.835 480.871Z" fill="#10CFC9"/>
<path d="M377.507 495.441L378.19 495.753L365.835 501.608L353.471 495.753L354.154 495.441L365.416 500.759L365.835 500.954L366.245 500.759L377.507 495.441ZM377.507 494.367L365.796 499.881L354.086 494.367L351.08 495.743L365.718 502.672L380.356 495.743L377.507 494.367Z" fill="#10CFC9"/>
<path d="M355.696 464.271V465.247C356.352 465.252 357.006 465.321 357.648 465.452C358.376 465.563 359.074 465.823 359.697 466.216C360.32 466.609 360.855 467.126 361.268 467.736C362.83 470.166 362.059 473.591 362.049 473.659L361.747 474.928L363.044 474.86H363.259C364.957 474.86 370.227 475.338 370.998 481.057L366.226 478.871L365.816 478.685L365.416 478.871L348.241 486.677L346.289 487.546L348.182 488.434L350.68 489.615L348.475 490.591H336.198C335.906 490.591 329.006 490.503 329.006 484.736C329.006 482.442 329.748 480.832 331.212 479.924C332.051 479.437 333.003 479.175 333.973 479.163H334.032L335.457 479.222L334.998 477.865C334.52 476.376 334.558 474.768 335.105 473.303C335.652 471.837 336.677 470.598 338.013 469.785C339.145 469.019 340.473 468.595 341.839 468.565C342.826 468.614 343.794 468.859 344.686 469.286C345.577 469.713 346.374 470.314 347.031 471.054L348.25 472.518L348.729 470.673C348.787 470.449 350.222 465.208 355.638 465.208V464.232M355.638 464.232C349.363 464.232 347.772 470.419 347.772 470.419C347.023 469.571 346.111 468.882 345.09 468.394C344.069 467.907 342.96 467.629 341.829 467.58C340.558 467.608 339.311 467.928 338.183 468.514C337.055 469.1 336.076 469.937 335.322 470.961C334.568 471.984 334.059 473.167 333.833 474.418C333.608 475.669 333.673 476.955 334.022 478.178H333.915C333.134 478.178 327.972 478.412 327.972 484.726C327.972 491.557 336.14 491.557 336.14 491.557H348.621L352.934 489.605L348.543 487.527L365.709 479.72L371.964 482.569V482.52C371.964 474.274 364.645 473.855 363.181 473.855H362.918C362.918 473.855 364.791 465.901 357.775 464.506C357.065 464.36 356.343 464.285 355.618 464.281" fill="#10CFC9"/>
<path d="M354.154 491.363L365.416 496.681L365.825 496.876L366.245 496.681L377.507 491.363L378.19 491.675L365.825 497.53L353.471 491.675L354.154 491.363ZM377.497 490.289L365.786 495.803L354.076 490.289L351.08 491.655L365.718 498.584L380.356 491.655L377.497 490.289Z" fill="#10CFC9"/>
</g>
<defs>
<clipPath id="clip0_54973_133445">
<rect width="559.39" height="616" fill="white"/>
</clipPath>
</defs>
</svg>
